<?xml version="1.0" standalone="no"?>
<!DOCTYPE svg PUBLIC "-//W3C//DTD SVG 20010904//EN"
 "http://www.w3.org/TR/2001/REC-SVG-20010904/DTD/svg10.dtd">
<svg version="1.0" xmlns="http://www.w3.org/2000/svg"
 width="1572.000000pt" height="1572.000000pt" viewBox="0 0 1572.000000 1572.000000"
 preserveAspectRatio="xMidYMid meet">
<metadata>
Created by potrace 1.14, written by Peter Selinger 2001-2017
</metadata>
<g transform="translate(0.000000,1572.000000) scale(0.100000,-0.100000)"
fill="#000000" stroke="none">
<path d="M5850 12911 c0 -3 -8 -7 -17 -8 -44 -3 -75 -11 -85 -21 -6 -6 -17 -8
-24 -5 -8 3 -14 0 -14 -7 0 -7 -7 -10 -15 -6 -8 3 -18 -2 -23 -10 -5 -9 -12
-16 -15 -16 -19 0 -47 -11 -47 -19 0 -5 -7 -9 -15 -9 -8 0 -15 -5 -15 -11 0
-5 -4 -7 -10 -4 -5 3 -10 2 -10 -3 0 -5 -11 -15 -25 -22 -13 -7 -22 -17 -19
-22 3 -4 0 -8 -5 -8 -15 0 -91 -82 -91 -98 0 -7 -4 -10 -10 -7 -5 3 -12 -6
-16 -20 -3 -14 -9 -25 -13 -25 -10 0 -62 -106 -64 -130 -1 -11 -4 -20 -8 -20
-4 0 -6 -8 -4 -17 1 -10 -2 -27 -8 -38 -6 -11 -11 -33 -12 -50 0 -17 -5 -36
-9 -44 -7 -10 -5 -12 5 -6 11 6 12 5 2 -5 -9 -10 -10 -17 -2 -27 7 -7 7 -13 2
-13 -10 0 -10 -66 0 -77 4 -3 1 -13 -6 -21 -10 -13 -9 -14 2 -7 11 6 13 4 8
-8 -4 -10 -1 -17 6 -17 8 0 8 -3 -2 -9 -9 -6 -10 -10 -2 -12 7 -3 13 -18 15
-34 2 -17 5 -30 6 -30 1 0 3 -7 5 -15 1 -8 10 -32 18 -53 9 -20 16 -40 16 -44
-1 -3 6 -10 15 -15 9 -5 16 -18 16 -28 0 -11 7 -20 16 -20 8 0 13 -4 10 -9 -7
-11 122 -151 139 -151 8 0 18 -6 22 -13 8 -13 58 -48 68 -47 3 0 26 -11 52
-24 25 -14 50 -23 55 -20 4 3 8 0 8 -6 0 -6 5 -8 10 -5 6 3 10 2 10 -3 0 -5
10 -8 23 -7 12 1 27 -2 34 -7 18 -15 288 -12 288 2 0 1 7 3 15 5 46 9 120 39
120 48 0 6 3 8 6 4 8 -8 104 42 104 54 0 5 6 9 13 9 7 0 21 11 31 25 10 13 22
22 27 19 5 -3 9 2 9 11 0 9 5 13 10 10 6 -3 10 -3 10 2 0 4 16 25 35 46 18 20
32 37 29 37 -3 0 2 7 10 16 9 8 14 20 11 25 -4 5 -2 9 4 9 12 0 61 99 61 121
0 8 4 19 10 25 5 5 10 24 12 42 1 17 5 32 8 32 4 0 6 17 5 38 0 20 1 41 4 46
6 13 7 106 1 106 -3 0 -5 15 -5 33 1 17 -5 47 -12 65 -7 17 -11 32 -9 32 3 0
-2 16 -10 35 -8 19 -11 35 -7 35 5 0 4 4 -2 8 -5 4 -21 28 -33 54 -13 25 -32
55 -42 66 -10 11 -16 23 -13 26 4 3 1 6 -5 6 -7 0 -12 6 -12 13 0 6 -23 32
-51 57 -29 25 -57 50 -64 57 -7 7 -29 21 -49 32 -20 12 -52 30 -71 41 -19 11
-38 20 -43 21 -4 1 -17 5 -30 10 -13 5 -30 9 -38 9 -8 0 -14 4 -14 8 0 10 -12
11 -162 16 -71 3 -128 1 -128 -3z"/>
<path d="M4557 12749 c-9 -6 -17 -7 -17 -3 0 3 -7 1 -15 -6 -8 -6 -19 -9 -25
-5 -5 3 -10 1 -10 -5 0 -6 -11 -8 -25 -6 -17 3 -23 1 -19 -6 5 -7 2 -9 -8 -5
-9 3 -19 3 -23 -1 -4 -4 -11 -8 -16 -8 -5 -1 -11 -3 -14 -4 -3 -1 -9 -4 -15
-5 -5 -1 -12 -4 -15 -5 -5 -3 -6 -3 -50 -15 -16 -4 -36 -12 -42 -18 -7 -5 -13
-7 -13 -3 0 4 -13 0 -30 -9 -16 -8 -38 -15 -50 -15 -11 0 -20 -4 -20 -8 0 -5
-6 -9 -12 -10 -25 -1 -54 -11 -103 -33 -27 -13 -53 -22 -57 -21 -5 1 -8 -2 -8
-8 0 -5 -8 -10 -18 -10 -10 0 -22 -3 -26 -7 -3 -4 -12 -8 -19 -9 -29 -5 -42
-10 -48 -17 -3 -5 -13 -9 -21 -11 -8 -1 -27 -10 -41 -19 -15 -10 -27 -15 -27
-12 0 2 -21 -7 -46 -21 -25 -14 -48 -23 -51 -21 -2 3 -14 -4 -25 -15 -11 -11
-26 -17 -34 -14 -8 3 -14 2 -14 -3 0 -4 -34 -25 -75 -45 -41 -20 -77 -41 -80
-47 -4 -5 -11 -7 -16 -4 -5 4 -9 1 -9 -5 0 -6 -4 -9 -9 -5 -6 3 -14 -3 -20
-12 -6 -10 -11 -14 -11 -10 0 4 -20 -6 -45 -23 -25 -17 -45 -28 -45 -25 0 3
-15 -5 -33 -19 -19 -15 -38 -26 -43 -26 -5 0 -23 -12 -39 -27 -16 -16 -31 -26
-32 -23 -1 3 -12 -3 -23 -12 -11 -10 -24 -18 -28 -18 -4 0 -23 -13 -42 -30
-19 -16 -39 -29 -45 -30 -9 0 -28 -14 -82 -60 -7 -5 -17 -10 -23 -10 -5 0 -10
-4 -10 -8 0 -4 -12 -15 -27 -24 -16 -9 -38 -25 -50 -35 -52 -44 -63 -53 -63
-49 0 5 -61 -47 -102 -86 -15 -14 -28 -24 -28 -21 0 3 -8 -4 -19 -15 -10 -12
-22 -22 -26 -22 -4 0 -24 -18 -45 -40 -20 -22 -40 -37 -44 -33 -3 3 -6 -1 -6
-10 0 -10 -3 -16 -7 -15 -5 2 -32 -21 -62 -50 -29 -28 -58 -52 -64 -52 -6 0
-8 -3 -4 -6 6 -6 -30 -44 -77 -82 -16 -12 -26 -22 -23 -22 6 0 -46 -56 -160
-176 -23 -24 -40 -44 -36 -44 3 0 -8 -13 -25 -30 -18 -16 -30 -30 -27 -30 3 0
-3 -8 -13 -18 -31 -33 -57 -67 -59 -76 -1 -5 -6 -12 -11 -15 -11 -6 -56 -62
-82 -101 -8 -12 -31 -43 -51 -69 -20 -25 -39 -54 -42 -63 -4 -10 -11 -18 -17
-18 -5 0 -10 -7 -10 -15 0 -8 -5 -15 -12 -15 -6 0 -8 -3 -5 -7 4 -3 -2 -13
-14 -21 -11 -8 -18 -20 -15 -28 3 -8 1 -14 -4 -14 -5 0 -21 -20 -36 -45 -14
-25 -30 -45 -36 -45 -5 0 -7 -4 -4 -9 3 -4 -3 -19 -14 -31 -11 -12 -17 -26
-15 -30 3 -5 2 -10 -2 -12 -12 -5 -48 -59 -64 -95 -7 -18 -18 -33 -22 -33 -5
0 -5 -4 -2 -10 3 -5 3 -10 -2 -10 -4 0 -14 -15 -22 -32 -8 -18 -23 -45 -33
-60 -11 -16 -16 -28 -11 -28 4 0 0 -7 -10 -14 -10 -8 -17 -18 -15 -22 1 -5 -3
-19 -10 -31 -7 -13 -10 -23 -7 -23 3 0 -3 -10 -14 -22 -11 -11 -18 -25 -15
-30 3 -4 0 -8 -7 -8 -7 0 -9 -3 -6 -7 4 -3 -1 -12 -11 -20 -9 -8 -12 -12 -5
-9 6 4 -1 -20 -17 -51 -17 -32 -30 -61 -30 -65 0 -5 -15 -41 -33 -80 -19 -40
-37 -85 -41 -100 -3 -16 -11 -28 -17 -28 -6 0 -7 -5 -4 -10 4 -6 1 -17 -5 -25
-7 -8 -10 -15 -7 -15 3 0 -6 -28 -20 -62 -13 -35 -26 -67 -27 -73 -2 -5 -8
-23 -14 -38 -7 -16 -12 -34 -12 -41 0 -6 -6 -18 -12 -25 -11 -11 -10 -12 0 -6
11 6 11 3 1 -16 -27 -52 -28 -58 -16 -62 9 -4 9 -6 -1 -6 -7 -1 -10 -5 -7 -11
3 -5 1 -10 -4 -10 -6 0 -10 -3 -9 -7 4 -14 -13 -83 -20 -83 -4 0 -8 -10 -9
-23 -1 -12 -4 -29 -6 -37 -2 -8 -7 -28 -11 -45 -4 -16 -10 -37 -13 -45 -3 -8
-7 -32 -9 -53 -2 -21 -9 -48 -15 -59 -8 -15 -8 -19 0 -14 7 5 9 1 5 -8 -3 -9
-9 -14 -13 -12 -4 3 -6 -10 -6 -27 1 -18 -2 -39 -6 -48 -5 -9 -9 -32 -11 -50
-1 -19 -5 -38 -8 -44 -4 -5 -7 -22 -6 -37 1 -16 -2 -28 -6 -28 -4 0 -5 -7 -2
-15 3 -8 2 -20 -2 -27 -4 -7 -9 -24 -10 -38 -4 -68 -17 -176 -21 -182 -2 -5 2
-8 9 -8 8 0 9 -3 3 -8 -6 -4 -12 -20 -13 -37 -3 -47 -10 -110 -12 -110 -1 0
-3 -10 -4 -22 -2 -13 2 -23 8 -23 7 0 7 -3 1 -8 -12 -9 -16 -44 -4 -36 5 3 9
0 9 -5 0 -6 -4 -11 -10 -11 -12 0 -11 -551 2 -567 6 -7 5 -14 -2 -18 -6 -3 -7
-12 -3 -18 4 -7 8 -37 10 -67 5 -94 11 -159 18 -170 3 -5 0 -10 -7 -10 -8 0
-9 -3 -3 -8 6 -4 11 -20 12 -37 4 -55 9 -80 16 -92 5 -8 3 -13 -5 -13 -8 0 -9
-3 -3 -8 6 -4 12 -23 14 -42 2 -19 8 -43 13 -54 7 -14 7 -17 -2 -11 -9 6 -9 3
-2 -12 6 -11 13 -41 17 -68 3 -26 7 -51 10 -55 3 -4 7 -25 11 -46 3 -20 9 -47
13 -58 5 -12 7 -31 6 -43 -1 -13 3 -23 8 -23 6 0 8 -3 4 -6 -3 -3 1 -27 9 -54
8 -26 15 -59 16 -74 1 -14 6 -26 11 -26 4 0 5 -4 2 -10 -3 -5 -1 -10 5 -10 6
0 8 -5 5 -10 -4 -6 0 -24 9 -40 8 -17 11 -28 6 -25 -5 3 -2 -7 5 -22 8 -16 15
-40 17 -55 2 -15 7 -30 11 -34 4 -4 7 -18 7 -31 0 -13 4 -23 8 -23 4 0 9 -10
9 -22 1 -13 7 -24 12 -26 5 -2 8 -9 5 -17 -3 -7 -1 -16 5 -19 6 -4 8 -13 4
-21 -3 -8 0 -15 6 -15 6 0 11 -9 11 -20 0 -11 5 -20 12 -20 6 0 8 -3 5 -7 -4
-3 -1 -13 6 -21 10 -13 9 -14 -3 -7 -12 7 -13 6 -3 -7 7 -8 10 -18 6 -21 -3
-4 -1 -7 5 -7 7 0 11 -3 10 -7 -1 -5 3 -18 10 -30 7 -13 10 -23 6 -23 -3 0 -1
-6 5 -13 6 -8 8 -17 4 -20 -3 -4 -1 -7 5 -7 7 0 12 -9 12 -20 0 -11 5 -20 11
-20 5 0 8 -4 4 -9 -3 -5 1 -15 8 -23 8 -7 12 -19 9 -26 -2 -6 1 -12 8 -12 6 0
9 -4 5 -9 -3 -5 -1 -12 5 -16 5 -3 10 -14 10 -24 0 -9 6 -23 12 -29 7 -7 13
-16 13 -20 1 -4 6 -17 13 -28 6 -12 8 -24 5 -28 -3 -3 -1 -6 6 -6 7 0 9 -4 6
-10 -3 -5 -2 -10 4 -10 6 0 14 -12 17 -27 4 -16 10 -30 13 -33 13 -11 51 -90
51 -106 0 -10 3 -15 6 -11 3 3 22 -26 41 -64 20 -38 40 -69 45 -69 5 0 7 -4 3
-10 -3 -5 3 -18 14 -29 11 -11 23 -32 27 -46 3 -14 10 -25 16 -25 5 0 7 -4 4
-9 -3 -5 1 -11 9 -15 8 -3 15 -10 15 -16 0 -10 38 -69 51 -80 4 -3 9 -14 13
-25 3 -11 17 -32 31 -48 14 -15 23 -27 20 -27 -4 0 10 -20 29 -44 20 -23 36
-48 36 -55 0 -6 5 -11 10 -11 6 0 10 -5 10 -11 0 -7 8 -19 18 -28 10 -9 29
-32 42 -51 33 -47 41 -58 68 -86 12 -14 22 -28 22 -31 0 -7 6 -14 68 -80 22
-23 37 -44 34 -47 -3 -3 3 -8 12 -12 9 -3 16 -10 16 -15 0 -5 27 -36 60 -70
33 -34 60 -65 60 -69 0 -5 9 -12 20 -15 11 -3 20 -11 20 -16 0 -13 78 -89 90
-89 6 0 10 -5 10 -11 0 -13 58 -69 71 -69 5 0 9 -7 9 -16 0 -8 4 -12 10 -9 6
3 10 -1 10 -9 0 -9 6 -16 13 -16 7 0 18 -9 25 -20 7 -11 19 -20 27 -20 8 0 15
-7 15 -15 0 -8 4 -15 9 -15 5 0 22 -12 38 -28 16 -15 48 -43 72 -62 24 -19 55
-45 68 -58 12 -13 23 -19 23 -15 0 4 4 3 8 -3 12 -19 123 -106 128 -101 3 3
15 -5 28 -17 42 -40 76 -66 87 -66 5 0 7 -5 3 -12 -4 -6 -3 -8 4 -4 6 3 18 -1
26 -10 9 -8 16 -13 16 -9 0 7 23 -11 47 -37 9 -9 20 -15 25 -12 4 3 8 1 8 -5
0 -5 10 -13 22 -17 12 -3 28 -12 35 -18 32 -28 43 -36 51 -36 4 0 18 -9 30
-20 12 -12 22 -18 22 -14 0 3 7 0 16 -7 9 -7 22 -14 30 -15 7 -1 21 -9 29 -18
9 -8 33 -23 53 -33 20 -9 39 -20 42 -23 3 -3 20 -12 38 -19 17 -8 32 -18 32
-23 0 -5 4 -7 9 -4 5 3 20 -4 35 -15 14 -11 26 -18 26 -14 0 3 12 -2 28 -13
15 -11 44 -25 65 -33 20 -7 37 -16 37 -21 0 -4 7 -5 15 -2 8 4 15 1 15 -6 0
-6 4 -8 10 -5 6 3 10 1 10 -4 0 -6 4 -11 9 -11 5 0 35 -12 67 -27 33 -15 65
-26 72 -25 6 2 12 -3 12 -9 0 -7 3 -10 6 -6 3 3 21 -3 40 -14 19 -10 41 -19
48 -19 8 0 27 -7 43 -14 35 -19 66 -30 76 -28 4 1 7 -3 7 -9 0 -6 7 -9 15 -6
8 4 17 2 20 -4 4 -5 12 -9 18 -8 7 1 29 -5 49 -14 21 -10 42 -17 48 -17 5 0
10 -6 10 -12 0 -10 2 -10 9 0 7 11 11 11 23 -2 9 -8 18 -13 21 -10 3 4 12 2
19 -2 13 -9 33 -14 56 -16 6 -1 12 -4 12 -7 0 -3 10 -7 23 -8 24 -3 44 -7 67
-16 13 -5 56 -16 86 -22 6 -2 10 35 9 106 -1 66 3 105 9 102 5 -4 6 -1 1 8
-13 20 -14 120 -2 112 6 -4 7 -1 1 8 -12 19 -12 519 0 512 5 -4 6 0 1 8 -14
21 -14 120 -1 112 8 -5 8 -3 0 8 -6 8 -10 52 -9 102 l2 88 -36 15 c-20 9 -47
21 -61 26 -14 6 -37 17 -52 25 -16 8 -28 12 -28 8 0 -3 -15 2 -32 12 -18 9
-36 16 -40 15 -5 -1 -8 3 -8 9 0 6 -6 9 -14 6 -8 -3 -17 1 -20 9 -3 8 -9 13
-13 12 -11 -2 -86 35 -95 47 -4 6 -8 6 -8 1 0 -5 -7 -3 -15 4 -8 7 -15 9 -15
4 0 -5 -5 -2 -10 6 -5 8 -13 16 -17 16 -28 5 -52 18 -48 25 3 4 -13 13 -35 20
-22 7 -40 15 -40 19 0 4 -13 13 -30 20 -16 7 -30 17 -30 23 0 6 -3 8 -6 4 -3
-3 -24 7 -46 23 -22 17 -46 27 -52 23 -6 -3 -8 -3 -4 2 7 7 -83 75 -101 75 -5
0 -11 7 -15 15 -3 8 -12 15 -19 15 -8 0 -22 9 -32 20 -10 11 -24 20 -32 20 -7
0 -13 7 -13 15 0 8 -5 15 -11 15 -6 0 -16 6 -23 13 -8 6 -24 19 -36 27 -12 8
-41 32 -64 53 -22 20 -47 37 -53 37 -7 0 -13 7 -13 15 0 8 -4 15 -9 15 -4 0
-50 40 -102 90 -52 49 -97 90 -101 90 -5 0 -8 7 -8 16 0 8 -3 13 -7 11 -5 -3
-14 1 -21 9 -7 8 -11 14 -8 14 3 0 -17 22 -44 49 -27 27 -46 51 -44 54 3 3 -4
8 -15 12 -12 3 -21 11 -21 16 0 8 -31 47 -67 85 -7 7 -13 16 -13 21 0 4 -9 14
-20 21 -11 7 -20 18 -20 25 0 7 -9 19 -20 27 -11 8 -20 20 -20 26 0 7 -3 14
-7 16 -13 5 -73 86 -73 97 0 6 -4 11 -10 11 -5 0 -10 4 -10 10 0 9 -19 35 -47
65 -7 8 -13 21 -13 29 0 9 -4 16 -10 16 -5 0 -10 7 -10 15 0 8 -4 15 -10 15
-5 0 -10 5 -10 11 0 6 -12 30 -28 53 -15 22 -38 64 -52 91 -14 28 -31 54 -38
58 -7 5 -10 12 -7 18 4 5 2 9 -3 9 -9 0 -39 69 -34 82 1 4 -2 8 -7 8 -9 0 -37
60 -33 73 1 4 -2 7 -8 7 -5 0 -10 7 -10 15 0 8 -5 15 -10 15 -6 0 -9 3 -8 8 1
4 -4 18 -12 32 -8 14 -15 32 -16 40 -3 29 -16 60 -26 60 -5 0 -7 4 -4 8 3 5
-1 20 -8 34 -8 14 -19 43 -26 65 -7 21 -16 43 -21 48 -4 6 -9 22 -11 35 -2 14
-7 31 -11 38 -5 6 -5 17 -2 22 3 6 1 10 -5 10 -6 0 -8 5 -5 10 3 6 1 10 -6 10
-6 0 -9 8 -6 20 3 11 0 20 -6 20 -6 0 -7 3 -4 7 4 3 2 11 -3 18 -5 6 -10 26
-12 43 -1 18 -6 32 -11 32 -4 0 -5 5 -2 10 3 6 2 10 -4 10 -5 0 -8 8 -6 18 1
9 0 22 -4 27 -6 11 -10 27 -13 63 -1 12 -5 22 -9 22 -4 0 -6 8 -4 18 1 9 -1
26 -6 38 -4 11 -10 34 -13 50 -9 52 -15 74 -22 86 -4 7 -3 8 4 4 7 -4 12 -3
12 3 0 5 -5 11 -10 13 -6 2 -11 24 -12 51 -1 26 -5 47 -8 47 -3 0 -6 15 -7 33
-4 61 -8 92 -16 105 -5 7 -3 12 5 12 8 0 9 3 3 8 -11 8 -17 83 -19 229 0 51
-4 93 -8 93 -4 0 -3 12 3 27 7 18 7 29 0 31 -5 2 -7 10 -4 19 10 27 9 167 -2
182 -7 11 -7 13 1 8 8 -4 11 9 12 41 2 89 8 157 16 170 4 7 2 12 -5 12 -8 0
-8 4 -2 13 6 6 9 22 8 35 -1 12 1 22 4 22 4 0 6 16 5 35 -1 19 2 37 6 40 5 3
6 15 2 27 -3 11 -1 19 4 16 5 -4 8 11 8 33 -1 21 1 39 5 39 3 0 7 10 8 23 4
45 9 72 15 82 3 6 4 18 3 28 -2 9 1 17 5 17 5 0 7 9 5 20 -2 11 -1 20 3 20 4
0 8 19 10 43 1 23 7 44 12 45 6 2 8 8 5 12 -3 5 1 25 9 45 8 19 13 35 10 35
-2 0 2 16 10 35 8 19 12 35 9 35 -3 0 -1 6 5 13 6 6 11 15 11 20 0 4 10 39 22
77 11 38 20 72 19 76 -1 4 2 10 7 13 9 7 32 63 40 99 3 12 9 22 14 22 5 0 9
11 9 25 0 14 4 25 9 25 5 0 12 16 15 35 4 19 11 35 16 35 6 0 9 3 8 8 -1 4 5
21 12 37 7 17 13 33 12 38 -1 4 2 7 6 7 5 0 15 18 22 40 7 22 18 40 23 40 6 0
8 3 4 6 -3 3 5 23 18 44 13 21 21 41 18 44 -4 3 -2 6 4 6 5 0 20 21 33 48 13
26 26 49 29 52 4 3 15 22 26 43 11 20 22 37 25 37 4 0 14 17 23 38 9 21 26 48
37 59 11 12 20 25 20 29 0 4 16 26 35 50 19 23 35 45 35 49 0 4 18 29 40 55
22 26 40 52 40 58 0 6 3 12 8 14 4 2 23 21 41 43 19 22 39 39 44 37 5 -1 6 1
3 6 -6 9 42 67 135 164 31 32 55 58 53 58 -2 0 17 19 43 43 25 23 68 63 95 89
26 26 48 44 48 40 0 -3 10 7 23 24 12 16 27 30 33 31 6 1 27 17 46 35 51 48
77 68 88 68 6 0 10 4 10 9 0 5 9 13 21 16 11 4 18 9 15 12 -6 6 60 53 74 53 4
0 10 3 12 8 7 17 61 51 72 45 6 -3 8 -3 4 2 -7 8 160 120 226 152 20 9 36 21
36 25 0 5 5 6 10 3 6 -3 10 -1 10 4 0 6 5 11 10 11 6 0 29 12 53 27 23 14 43
26 44 26 10 -4 43 11 43 19 0 5 4 7 9 4 5 -4 11 -2 13 4 2 6 14 12 28 15 14 3
26 9 28 15 2 6 8 8 13 4 5 -3 9 0 9 5 0 6 9 11 19 11 11 0 23 5 26 10 4 6 10
8 15 5 4 -3 13 2 20 10 7 8 16 13 20 10 5 -3 11 -1 15 4 3 5 14 8 25 6 12 -2
18 0 15 4 -5 9 47 34 71 34 19 0 22 14 20 96 0 40 2 75 7 78 4 2 4 9 1 15 -10
15 -11 139 -1 145 4 2 4 9 1 15 -10 15 -11 139 -1 145 4 2 4 9 1 15 -10 16
-11 419 -1 425 4 2 4 10 0 16 -10 16 -9 49 2 66 4 8 4 12 -1 8 -11 -6 -11 373
-1 390 4 6 3 14 -3 18 -6 4 -8 10 -5 15 9 14 -9 19 -28 9z"/>
<path d="M7147 12732 c3 -15 10 -30 15 -33 5 -3 10 -16 11 -27 1 -12 4 -22 7
-22 5 0 10 -22 13 -62 1 -9 5 -14 10 -11 5 3 7 -1 6 -8 -1 -8 0 -21 4 -29 5
-13 19 -86 19 -100 0 -3 4 -12 9 -21 5 -10 3 -21 -4 -29 -10 -10 -9 -11 2 -5
11 6 13 4 8 -8 -4 -10 -2 -17 5 -17 7 0 6 -5 -2 -15 -7 -8 -8 -15 -3 -15 5 0
8 -27 8 -60 0 -35 3 -60 10 -60 5 0 3 -5 -5 -10 -10 -6 -11 -10 -3 -10 9 0 10
-7 3 -24 -6 -16 -5 -28 3 -36 7 -7 7 -10 2 -7 -6 3 -11 -20 -12 -61 -2 -40 -7
-69 -15 -74 -10 -6 -10 -8 -1 -8 9 0 10 -7 3 -26 -6 -14 -8 -29 -5 -34 3 -5 0
-14 -7 -22 -7 -7 -14 -24 -15 -38 -2 -33 -7 -52 -17 -69 -7 -10 -5 -12 3 -6
10 6 11 3 1 -14 -6 -12 -13 -32 -16 -44 -2 -12 -8 -23 -14 -25 -6 -2 -8 -8 -5
-12 3 -5 -4 -25 -15 -44 -11 -20 -19 -39 -19 -42 2 -9 -35 -79 -44 -82 -4 -2
-4 -8 -1 -14 3 -5 -8 -29 -25 -53 -17 -24 -31 -48 -31 -53 0 -6 15 -14 33 -18
46 -11 46 -11 55 -14 4 -1 10 -2 15 -1 4 0 7 -4 7 -9 0 -6 6 -10 14 -10 8 0
27 -5 43 -12 15 -6 32 -10 37 -9 4 1 13 -2 20 -7 6 -5 30 -14 54 -22 23 -7 42
-16 42 -20 0 -4 6 -7 13 -7 6 0 33 -10 59 -21 26 -12 50 -22 53 -22 4 0 29
-11 55 -24 27 -13 51 -22 54 -19 3 4 6 1 6 -5 0 -7 6 -12 14 -12 7 0 19 -7 26
-15 7 -8 16 -13 20 -10 5 3 11 1 15 -5 4 -6 11 -8 16 -5 5 4 9 2 9 -4 0 -5 16
-15 35 -22 19 -7 35 -17 35 -22 0 -4 5 -5 10 -2 6 3 10 1 10 -4 0 -6 6 -11 14
-11 7 0 19 -7 26 -15 7 -9 15 -13 18 -11 2 3 16 -4 30 -14 13 -11 31 -20 38
-20 8 0 14 -3 14 -8 0 -4 16 -16 35 -26 19 -11 35 -22 35 -26 0 -5 11 -11 25
-14 14 -4 25 -11 25 -16 0 -6 9 -10 21 -10 11 0 17 -4 14 -10 -3 -5 0 -10 9
-10 8 0 16 -3 18 -7 4 -11 65 -53 75 -53 5 0 15 -9 23 -20 8 -11 19 -20 25
-20 6 0 24 -13 40 -30 16 -16 31 -28 33 -25 2 2 19 -11 37 -30 18 -18 36 -31
39 -27 4 3 9 -4 13 -16 3 -12 9 -19 14 -16 5 3 9 0 9 -5 0 -6 5 -11 11 -11 6
0 28 -18 49 -40 21 -22 41 -40 45 -40 4 0 13 -8 20 -17 22 -30 51 -24 46 10 0
4 2 6 6 5 10 -4 253 242 253 255 0 6 3 8 6 5 6 -7 20 6 72 65 17 21 32 35 32
31 0 -4 9 4 20 17 45 54 99 106 105 101 3 -3 5 2 5 12 0 9 5 14 10 11 6 -3 10
-1 10 4 0 6 64 75 143 153 78 78 141 145 139 150 -1 4 2 8 7 8 4 0 20 12 35
26 l26 27 -32 29 c-18 17 -32 33 -31 37 1 5 -9 14 -22 21 -14 7 -25 17 -25 22
0 4 -7 8 -17 8 -9 0 -14 2 -11 5 9 9 -127 135 -145 135 -5 0 -6 3 -4 8 3 4 -1
13 -9 20 -8 7 -14 9 -14 5 0 -4 -5 0 -11 10 -5 9 -14 17 -19 17 -6 0 -23 13
-38 30 -16 16 -32 27 -35 23 -4 -3 -7 -2 -7 4 0 12 -116 103 -132 103 -6 0 -9
3 -5 6 3 3 -20 23 -51 44 -31 21 -67 48 -78 59 -12 11 -25 17 -28 14 -3 -4 -6
-1 -6 5 0 7 -7 12 -15 12 -8 0 -20 9 -27 19 -6 10 -18 17 -25 14 -7 -3 -13 2
-13 11 0 9 -3 15 -7 14 -15 -3 -43 14 -37 23 3 5 2 9 -3 8 -15 -2 -53 13 -53
22 0 5 -5 9 -10 9 -6 0 -34 15 -63 34 -69 45 -136 84 -169 98 -16 7 -28 16
-28 20 0 4 -7 8 -15 8 -8 0 -15 5 -15 12 0 6 -3 9 -6 5 -6 -6 -141 60 -150 74
-3 5 -10 7 -15 4 -5 -4 -9 -1 -9 5 0 6 -4 8 -10 5 -5 -3 -10 -1 -10 6 0 7 -3
10 -6 6 -3 -3 -27 5 -52 18 -26 13 -54 25 -62 27 -8 2 -18 8 -22 13 -4 6 -11
10 -15 11 -4 0 -25 8 -47 17 -21 9 -47 17 -58 17 -12 0 -17 4 -12 12 5 8 2 9
-9 5 -10 -3 -17 -2 -17 4 0 6 -4 7 -10 4 -5 -3 -10 -1 -10 5 0 6 -4 9 -9 5 -5
-3 -17 2 -25 11 -9 9 -16 11 -16 4 0 -7 -7 -5 -16 4 -8 9 -20 14 -25 11 -5 -4
-9 -1 -9 6 0 7 -2 10 -6 7 -3 -3 -27 3 -53 13 -27 10 -51 15 -55 12 -3 -4 -6
0 -6 7 0 7 -3 11 -6 7 -4 -3 -19 0 -35 9 -16 8 -29 12 -29 8 0 -4 -6 -1 -13 5
-8 6 -17 8 -20 4 -4 -3 -7 -1 -7 6 0 7 -6 11 -12 8 -7 -2 -21 0 -31 5 -16 8
-27 11 -72 21 -5 2 -16 6 -23 11 -7 4 -16 6 -18 3 -3 -3 -27 3 -55 13 l-49 18
7 -26z"/>
<path d="M12045 11020 c-2 -3 -18 -7 -36 -8 -18 -1 -38 -7 -44 -12 -7 -6 -16
-5 -23 2 -9 9 -12 9 -12 0 0 -7 -9 -12 -20 -12 -11 0 -20 -4 -20 -10 0 -5 -6
-10 -13 -10 -21 0 -117 -51 -117 -61 0 -6 -4 -8 -8 -5 -10 6 -154 -130 -189
-177 -13 -17 -23 -28 -23 -24 0 4 -27 -20 -60 -54 -33 -34 -60 -65 -60 -70 0
-5 -6 -9 -12 -10 -7 0 -35 -27 -63 -59 -27 -31 -60 -63 -72 -70 -13 -8 -21
-15 -19 -17 2 -2 -50 -58 -115 -124 -66 -66 -119 -125 -119 -131 0 -6 -3 -9
-6 -5 -8 7 -33 -15 -28 -25 2 -4 -5 -9 -16 -13 -11 -3 -20 -9 -20 -13 0 -4
-20 -29 -45 -55 -25 -27 -45 -46 -45 -42 0 3 -15 -11 -32 -32 -58 -65 -163
-168 -171 -165 -4 1 -6 -2 -5 -6 2 -5 -18 -30 -44 -56 -27 -26 -48 -52 -48
-57 0 -6 -3 -8 -7 -6 -5 2 -16 -4 -25 -15 -10 -10 -15 -18 -11 -18 4 0 -7 -10
-24 -22 -16 -13 -32 -27 -34 -33 -2 -5 -7 -9 -11 -7 -5 1 -8 -5 -8 -13 0 -8
-8 -15 -17 -15 -9 0 -14 -2 -11 -5 6 -7 -120 -135 -133 -135 -5 0 -9 -5 -9
-11 0 -13 -87 -99 -101 -99 -5 0 -8 -4 -5 -9 3 -4 -20 -32 -51 -60 -31 -29
-66 -65 -78 -81 -12 -17 -24 -27 -27 -25 -3 3 -12 -5 -21 -18 -24 -37 -185
-196 -191 -190 -3 4 -6 2 -6 -4 0 -16 -81 -98 -94 -95 -6 2 -8 0 -4 -4 4 -4
-33 -47 -82 -96 -49 -49 -89 -91 -89 -94 -1 -2 -3 -4 -6 -4 -3 0 -16 -10 -28
-23 -21 -22 -57 -26 -57 -6 0 6 -4 8 -8 5 -5 -3 -15 4 -23 15 -23 33 -90 99
-100 99 -5 0 -9 4 -9 8 0 12 -182 197 -192 195 -4 -2 -8 2 -8 9 0 6 -31 42
-70 80 -38 38 -70 73 -70 78 0 6 -4 10 -10 10 -13 0 -70 57 -70 70 0 6 -4 9
-8 6 -5 -3 -14 4 -22 14 -8 10 -17 17 -22 14 -4 -3 -8 0 -8 5 0 6 -7 11 -15
11 -8 0 -15 5 -15 11 0 5 -4 8 -9 5 -5 -3 -14 1 -21 9 -7 8 -21 15 -30 15 -10
0 -20 5 -22 11 -2 5 -10 11 -18 13 -68 13 -90 19 -90 25 0 4 -56 7 -125 7 -69
0 -125 -3 -125 -7 0 -4 -12 -9 -27 -12 -16 -3 -35 -8 -43 -10 -8 -3 -25 -8
-37 -12 -13 -4 -23 -11 -23 -16 0 -5 -3 -8 -7 -7 -11 2 -67 -25 -75 -37 -4 -5
-8 -7 -8 -2 0 4 -8 -1 -18 -10 -10 -10 -39 -36 -65 -58 -26 -22 -47 -46 -47
-52 0 -7 -4 -13 -8 -13 -9 0 -47 -62 -44 -72 1 -5 -2 -8 -7 -8 -9 0 -37 -60
-33 -72 1 -5 -3 -8 -9 -8 -6 0 -9 -7 -5 -15 3 -8 0 -15 -6 -15 -6 0 -9 -3 -6
-6 4 -3 1 -20 -7 -37 -7 -18 -10 -38 -7 -46 3 -10 0 -11 -9 -5 -12 6 -12 5 -1
-8 9 -12 10 -18 2 -23 -6 -4 -9 -13 -7 -19 3 -7 1 -19 -3 -26 -5 -8 -4 -22 1
-33 7 -12 7 -23 -1 -32 -8 -10 -8 -15 0 -20 6 -4 9 -13 6 -21 -3 -8 -2 -14 2
-14 4 0 8 -15 7 -32 0 -18 3 -35 7 -38 4 -3 9 -15 11 -25 2 -11 9 -33 15 -48
7 -15 15 -39 18 -52 3 -14 10 -25 15 -25 5 0 9 -6 9 -13 0 -7 9 -23 20 -35 11
-12 20 -24 20 -26 0 -10 33 -45 208 -223 94 -97 172 -180 172 -185 0 -5 4 -7
9 -3 5 3 12 -4 16 -15 3 -11 13 -20 21 -20 8 0 14 -4 14 -9 0 -5 63 -72 140
-150 77 -78 140 -146 140 -151 0 -6 4 -10 9 -10 11 0 80 -67 101 -98 8 -12 18
-22 23 -22 10 0 67 -61 67 -72 0 -4 9 -10 20 -13 11 -3 20 -10 20 -15 0 -5 29
-38 65 -74 36 -36 65 -63 65 -60 0 3 12 -7 28 -21 15 -15 47 -36 72 -48 25
-11 48 -26 52 -31 4 -6 10 -7 14 -3 4 4 19 -1 33 -10 14 -9 37 -17 51 -18 14
-1 31 -5 38 -9 7 -4 21 -4 32 -1 13 4 20 2 20 -7 0 -8 3 -9 8 -3 9 12 82 13
82 1 0 -5 6 -4 13 1 6 6 20 9 30 8 22 -4 81 11 126 32 18 8 39 16 46 17 6 1
24 10 38 19 15 10 27 15 27 12 0 -3 9 3 19 13 28 25 43 36 74 57 15 10 25 20
23 23 -3 2 10 17 29 32 19 15 32 30 28 34 -3 3 -1 6 6 6 7 0 19 7 27 15 9 8
12 15 8 15 -4 0 8 11 27 25 19 14 34 29 34 33 0 4 13 21 29 37 16 17 26 23 22
15 -5 -8 3 -1 18 15 14 17 25 34 26 38 0 5 5 5 10 2 6 -3 10 -1 10 5 0 7 24
34 53 62 28 27 51 55 49 61 -2 7 -1 9 3 6 6 -7 63 47 183 173 34 37 62 64 62
62 0 -3 15 12 33 32 17 21 87 93 155 161 67 68 122 128 122 133 0 6 3 9 8 8 4
-1 21 12 39 30 17 17 28 32 25 32 -4 0 7 9 23 20 17 11 27 20 23 20 -4 0 5 13
20 28 15 15 30 26 35 24 4 -2 7 1 7 7 0 5 90 100 199 210 109 111 198 201 196
201 -2 0 69 72 156 160 87 88 159 165 159 171 0 7 2 10 6 7 6 -7 104 91 104
103 0 5 7 9 16 9 8 0 12 5 9 10 -3 6 1 10 10 10 9 0 13 5 10 10 -3 6 0 10 7
10 7 1 27 18 43 39 17 21 33 37 38 34 4 -2 7 3 7 11 0 8 9 18 21 21 11 4 18 9
16 11 -3 3 46 56 108 119 61 63 110 117 107 120 -3 3 -1 5 4 5 12 0 78 60 67
60 -4 1 3 7 17 15 14 8 22 14 19 15 -3 0 19 26 50 57 31 32 59 57 64 55 4 -1
7 5 7 14 0 8 5 12 10 9 6 -3 10 -1 10 5 0 15 26 41 34 33 3 -4 6 -1 6 6 0 7
16 28 36 47 20 19 34 34 30 34 -4 0 4 11 18 24 15 13 26 28 26 35 0 6 3 11 8
11 8 0 38 61 34 73 -1 4 3 7 9 7 6 0 9 7 5 15 -3 8 -1 15 4 15 6 0 10 12 10
26 0 15 4 23 10 19 7 -4 9 3 6 19 -3 15 0 26 6 26 6 0 8 11 5 26 -3 19 -1 24
11 19 11 -4 12 -2 4 7 -10 13 -9 59 2 77 4 5 2 12 -4 16 -6 4 -7 13 -1 23 6
11 6 24 0 35 -6 9 -7 17 -4 17 3 0 1 9 -5 20 -8 15 -8 20 2 20 10 0 10 2 0 9
-8 4 -13 10 -11 12 3 5 -19 75 -37 119 -35 82 -83 150 -143 204 -19 17 -48 43
-64 59 -16 15 -32 25 -37 22 -4 -3 -13 2 -20 10 -7 8 -21 15 -31 15 -11 0 -19
5 -19 10 0 6 -6 10 -14 10 -7 0 -26 7 -42 14 -15 8 -31 13 -36 10 -4 -3 -8 -1
-8 4 0 4 -21 9 -47 11 -26 1 -50 5 -53 9 -6 8 -100 10 -105 2z m59 -333 c-6
-9 -4 -9 7 -1 8 6 25 10 39 7 34 -5 120 -45 120 -55 0 -4 6 -8 13 -8 15 0 57
-44 57 -60 0 -5 10 -18 22 -30 12 -11 19 -20 15 -20 -4 0 -1 -13 7 -29 9 -16
12 -31 9 -35 -4 -3 -1 -6 5 -6 14 0 12 -22 -3 -32 -6 -5 -6 -8 1 -8 6 0 11
-16 12 -35 1 -19 -2 -35 -7 -35 -5 0 -8 -8 -8 -17 1 -28 -15 -76 -30 -91 -7
-8 -11 -18 -8 -23 4 -5 2 -9 -4 -9 -6 0 -17 -12 -25 -27 -8 -16 -15 -25 -16
-21 0 7 -60 -48 -60 -55 0 -2 -70 -75 -155 -161 -85 -86 -155 -161 -155 -167
0 -6 -4 -7 -10 -4 -5 3 -10 -1 -10 -9 0 -9 -5 -16 -10 -16 -6 0 -22 -11 -36
-25 -14 -14 -22 -25 -19 -25 4 0 -13 -16 -37 -36 -23 -20 -42 -38 -41 -40 1
-1 -92 -98 -206 -213 -114 -116 -206 -211 -204 -211 2 0 -8 -11 -23 -25 -15
-14 -31 -25 -36 -25 -5 0 -6 -4 -3 -10 3 -5 -2 -10 -11 -10 -10 0 -15 -2 -12
-5 3 -3 -67 -78 -155 -167 -87 -89 -166 -172 -174 -185 -9 -13 -22 -23 -29
-23 -8 0 -14 -7 -14 -15 0 -8 -7 -15 -15 -15 -8 0 -15 -4 -15 -8 0 -12 -169
-182 -181 -182 -5 0 -9 -5 -9 -11 0 -6 -44 -55 -97 -108 -54 -54 -112 -113
-130 -132 -17 -19 -43 -43 -57 -54 -14 -11 -25 -23 -26 -27 0 -12 -89 -96 -95
-90 -3 3 -5 1 -5 -5 0 -13 -170 -189 -170 -177 0 5 -8 -6 -17 -24 -8 -18 -18
-31 -20 -28 -5 4 -60 -50 -125 -122 -20 -22 -39 -38 -42 -35 -3 4 -6 2 -6 -4
0 -14 -87 -102 -94 -95 -3 3 -6 0 -6 -6 0 -10 -120 -134 -166 -172 -37 -30
-89 -51 -131 -53 -7 0 -13 -4 -13 -9 0 -5 -4 -7 -9 -4 -5 3 -29 7 -55 7 -25 1
-46 6 -46 11 0 4 -9 8 -20 8 -22 0 -54 16 -84 43 -11 9 -26 17 -35 17 -8 0
-12 3 -9 6 4 3 -54 66 -128 140 -74 75 -134 139 -134 145 0 5 -7 9 -16 9 -8 0
-12 5 -9 10 3 6 -2 10 -11 10 -10 0 -15 2 -12 5 3 3 -70 82 -162 175 -92 93
-165 172 -162 175 3 3 1 5 -5 5 -11 0 -102 88 -97 93 2 2 -7 10 -21 17 -14 7
-25 16 -25 20 0 11 -179 190 -190 190 -6 0 -9 3 -8 8 2 4 -5 18 -15 32 -9 13
-17 20 -17 15 0 -14 -29 42 -32 63 -2 9 -7 20 -12 23 -4 4 -9 20 -11 37 -1 16
-5 35 -9 41 -4 6 -1 11 6 11 8 0 9 3 3 8 -11 8 -16 42 -6 42 3 0 7 10 7 23 2
38 13 70 26 79 7 4 10 8 5 8 -12 0 43 78 59 84 9 3 12 11 8 17 -4 7 -3 9 3 6
6 -4 21 2 33 13 22 19 35 24 53 21 4 0 7 4 7 10 0 5 5 7 10 4 6 -3 10 0 10 7
0 10 2 10 9 -1 6 -9 11 -10 15 -2 10 16 106 14 106 -1 0 -9 4 -8 10 2 5 8 10
10 10 5 0 -6 12 -12 28 -13 15 -1 29 -7 30 -12 2 -6 8 -10 13 -10 21 0 101
-64 92 -74 -4 -3 -1 -6 6 -6 12 0 131 -119 131 -131 0 -4 8 -11 18 -14 9 -4
42 -35 72 -70 30 -35 61 -64 69 -64 8 -1 12 -4 8 -7 -3 -3 48 -59 113 -124 65
-66 115 -121 112 -124 -3 -4 1 -6 9 -6 8 0 25 -14 39 -31 31 -40 103 -109 113
-109 4 0 7 -5 7 -12 0 -6 14 -24 31 -39 26 -23 34 -26 50 -16 11 7 19 17 19
24 0 7 4 13 9 13 12 0 101 90 101 102 0 5 5 6 10 3 6 -3 10 -1 10 4 0 13 36
51 42 45 3 -2 11 7 18 21 7 14 20 25 28 25 9 0 13 2 10 5 -3 3 34 46 82 95 48
49 85 92 82 95 -3 3 -1 5 5 5 14 0 93 77 93 90 0 5 7 10 15 10 8 0 15 5 15 10
0 12 37 50 42 44 3 -2 11 7 18 21 7 14 19 25 27 25 7 0 13 5 13 10 0 14 37 50
52 50 6 0 9 2 6 6 -3 3 56 68 132 144 76 77 135 141 133 144 -2 2 4 7 15 10
10 4 25 17 32 31 7 13 16 23 19 22 3 -2 18 10 33 25 15 15 25 28 23 28 -2 0 7
11 21 25 14 14 30 25 36 25 6 0 8 3 5 7 -4 3 5 15 20 25 16 10 25 18 21 18 -4
0 39 47 96 105 57 58 108 105 114 105 6 0 9 6 6 14 -3 8 3 16 16 19 12 3 20
10 17 14 -3 5 8 18 24 28 16 11 29 23 29 26 0 12 49 59 61 59 7 0 9 3 6 7 -4
3 7 16 23 28 16 12 28 24 25 27 -3 2 12 18 32 34 64 51 70 56 53 48 -8 -4 45
52 118 126 72 73 132 137 132 142 0 4 7 8 15 8 8 0 15 3 15 8 0 12 98 110 104
104 3 -3 6 -1 6 5 0 6 33 44 74 86 41 41 72 78 69 81 -4 3 0 6 7 6 13 0 31 18
83 79 15 18 27 30 27 26 0 -3 11 5 24 17 13 13 21 26 19 31 -2 4 0 7 4 7 5 0
20 11 35 25 15 14 31 26 35 26 13 2 43 25 38 30 -2 3 4 5 13 6 9 1 33 5 52 10
57 14 82 15 74 0z"/>
<path d="M5814 10679 c-2 -3 -31 -6 -64 -5 -33 0 -60 -2 -60 -6 0 -3 -9 -4
-19 -1 -10 3 -29 -1 -41 -7 -17 -9 -21 -9 -15 0 5 9 3 9 -11 2 -11 -5 -32 -9
-49 -8 -16 1 -39 -3 -50 -8 -11 -5 -38 -11 -60 -12 -22 -1 -56 -5 -75 -9 -19
-4 -42 -8 -50 -10 -8 -1 -35 -8 -60 -15 -25 -7 -49 -13 -55 -14 -5 -1 -14 -4
-20 -7 -5 -4 -18 -5 -27 -4 -10 2 -18 -2 -18 -8 0 -5 -3 -8 -6 -5 -3 4 -21 0
-40 -8 -19 -8 -34 -11 -34 -8 0 4 -7 1 -15 -6 -8 -6 -19 -9 -25 -5 -5 3 -10 1
-10 -5 0 -6 -4 -8 -10 -5 -5 3 -10 2 -10 -3 0 -6 -9 -8 -20 -5 -11 3 -20 1
-20 -4 0 -6 -19 -15 -42 -22 -23 -7 -65 -24 -94 -37 -29 -13 -59 -24 -68 -24
-8 0 -16 -5 -18 -10 -2 -6 -13 -12 -26 -13 -12 0 -22 -5 -22 -9 0 -4 -7 -8
-15 -8 -8 0 -15 -5 -15 -11 0 -5 -4 -7 -10 -4 -5 3 -10 1 -10 -5 0 -6 -5 -8
-10 -5 -6 3 -13 0 -16 -9 -3 -8 -11 -13 -19 -10 -7 3 -19 -1 -26 -8 -8 -7 -20
-14 -28 -16 -7 -1 -20 -9 -28 -17 -8 -8 -21 -15 -29 -15 -8 0 -12 -4 -9 -10 3
-6 -1 -7 -9 -4 -9 3 -16 1 -16 -6 0 -6 -4 -8 -10 -5 -5 3 -10 1 -10 -4 0 -6
-16 -17 -35 -25 -19 -8 -35 -20 -35 -26 0 -6 -4 -9 -9 -6 -5 3 -14 -1 -21 -9
-7 -8 -18 -15 -24 -15 -7 0 -23 -11 -36 -25 -13 -14 -28 -25 -34 -25 -10 0
-57 -37 -97 -75 -9 -8 -21 -15 -27 -15 -7 0 -12 -5 -12 -10 0 -6 -8 -14 -17
-17 -10 -4 -29 -18 -44 -32 -46 -45 -113 -105 -143 -128 -17 -13 -27 -23 -23
-23 4 0 -10 -16 -30 -35 -20 -19 -41 -35 -45 -35 -4 0 -7 -3 -6 -7 1 -5 -11
-22 -27 -38 -28 -28 -86 -94 -127 -144 -10 -12 -15 -21 -12 -21 4 0 -5 -10
-20 -21 -15 -12 -25 -23 -22 -26 2 -3 -3 -13 -12 -22 -32 -34 -52 -61 -52 -71
0 -6 -4 -10 -10 -10 -5 0 -10 -6 -10 -12 -1 -7 -14 -28 -30 -47 -16 -19 -27
-38 -24 -43 3 -4 0 -8 -5 -8 -6 0 -11 -7 -11 -15 0 -8 -4 -15 -10 -15 -5 0
-10 -7 -10 -15 0 -8 -5 -15 -12 -15 -6 0 -9 -3 -5 -6 3 -3 -3 -15 -14 -27 -10
-11 -19 -27 -19 -34 0 -7 -5 -13 -10 -13 -6 0 -9 -3 -8 -7 4 -14 -13 -53 -23
-53 -5 0 -9 -9 -9 -20 0 -11 -5 -20 -11 -20 -5 0 -7 -4 -4 -10 3 -5 1 -10 -5
-10 -6 0 -8 -4 -5 -10 3 -5 2 -10 -4 -10 -5 0 -12 -13 -16 -30 -4 -16 -11 -30
-16 -30 -5 0 -9 -11 -9 -24 0 -13 -5 -26 -10 -28 -6 -2 -12 -13 -13 -26 0 -12
-4 -22 -8 -22 -4 0 -10 -10 -14 -22 -10 -31 -12 -37 -15 -43 -1 -3 -3 -8 -4
-12 -1 -5 -7 -18 -14 -31 -7 -12 -10 -26 -7 -31 3 -5 1 -11 -5 -13 -5 -1 -11
-15 -12 -30 -1 -16 -5 -28 -9 -28 -4 0 -10 -18 -14 -40 -4 -22 -10 -40 -14
-40 -4 0 -8 -9 -9 -20 -4 -44 -6 -50 -14 -50 -5 0 -7 -4 -3 -9 3 -5 0 -13 -6
-17 -8 -4 -7 -9 2 -15 10 -6 11 -9 2 -9 -8 0 -13 -13 -13 -29 0 -17 -4 -32
-10 -36 -5 -3 -8 -21 -6 -40 1 -19 -2 -35 -7 -35 -5 0 -7 -6 -4 -14 3 -8 3
-17 -1 -20 -3 -4 -7 -13 -8 -21 -1 -7 -5 -33 -9 -57 -4 -24 -8 -51 -8 -60 -1
-10 -4 -18 -7 -18 -3 0 -5 -19 -4 -43 0 -23 -2 -46 -5 -52 -5 -10 -7 -33 -11
-130 -2 -33 -6 -64 -9 -70 -9 -17 -10 -35 0 -29 12 7 11 -7 -1 -26 -5 -9 -5
-19 2 -27 8 -10 7 -13 -3 -13 -12 0 -12 -2 0 -9 9 -6 10 -11 2 -15 -6 -4 -9
-12 -5 -17 11 -19 11 -59 0 -59 -7 0 -7 -3 -1 -8 15 -10 16 -84 1 -75 -7 5 -7
2 1 -8 7 -9 13 -42 14 -75 1 -32 7 -62 13 -66 8 -5 7 -8 -2 -8 -10 0 -10 -5
-2 -20 8 -15 8 -20 -2 -20 -10 0 -10 -2 -1 -8 6 -4 12 -21 12 -37 0 -37 4 -56
15 -74 7 -10 5 -12 -3 -6 -10 6 -11 3 -2 -13 6 -11 12 -39 13 -63 2 -24 6 -46
9 -49 4 -3 8 -18 10 -35 2 -16 7 -36 12 -42 6 -9 5 -13 -4 -13 -12 0 -12 -2
-1 -9 8 -4 13 -10 12 -12 -3 -7 11 -64 22 -89 6 -14 11 -30 10 -36 -2 -7 3
-25 9 -40 14 -33 20 -53 21 -71 1 -7 6 -13 11 -13 6 0 8 -3 4 -6 -3 -4 0 -18
7 -33 7 -14 12 -33 11 -41 0 -8 5 -21 12 -28 7 -8 11 -18 8 -23 -4 -5 -1 -9 5
-9 6 0 9 -4 5 -9 -3 -5 -1 -12 5 -16 5 -3 10 -15 10 -26 0 -10 5 -19 10 -19 6
0 10 -7 10 -15 0 -8 4 -23 9 -33 4 -9 28 -57 52 -107 24 -49 46 -92 49 -95 3
-3 11 -18 18 -34 7 -16 28 -52 47 -80 18 -28 39 -63 46 -78 7 -16 16 -28 21
-28 5 0 7 -4 4 -9 -3 -5 1 -12 10 -15 9 -4 14 -9 11 -12 -3 -3 1 -13 9 -22 8
-9 35 -44 59 -77 24 -33 50 -67 58 -75 7 -8 27 -33 43 -54 16 -22 38 -49 49
-61 11 -12 39 -42 62 -68 23 -26 47 -47 53 -47 5 0 10 -6 10 -13 0 -16 56 -68
64 -60 3 4 6 1 6 -5 0 -12 31 -43 100 -102 23 -19 53 -44 66 -57 14 -13 28
-23 32 -23 4 0 26 -18 49 -39 23 -22 44 -37 47 -34 3 4 6 1 6 -5 0 -7 7 -12
15 -12 9 0 18 -7 21 -15 4 -8 10 -12 15 -9 5 3 12 -2 15 -10 3 -9 12 -16 20
-16 8 0 14 -4 14 -10 0 -5 6 -10 13 -10 7 0 22 -8 33 -18 10 -10 34 -25 52
-32 17 -8 32 -18 32 -21 0 -4 8 -9 18 -13 16 -5 28 -12 83 -48 14 -10 29 -15
33 -11 3 3 6 1 6 -5 0 -7 3 -11 8 -10 10 3 75 -32 84 -46 4 -6 8 -8 8 -4 0 6
26 -5 155 -62 11 -5 37 -14 58 -21 20 -7 37 -17 37 -23 0 -5 3 -7 6 -3 4 3 19
0 34 -8 15 -8 30 -12 32 -9 3 2 18 -1 34 -7 16 -7 31 -13 34 -13 3 -1 11 -5
18 -9 6 -5 12 -6 12 -3 0 3 19 -2 43 -11 23 -8 56 -17 72 -18 17 -1 29 -6 28
-11 -1 -5 17 -10 39 -11 21 -1 47 -8 56 -15 13 -11 14 -11 7 1 -6 11 -5 12 6
5 15 -9 19 -10 84 -19 22 -3 51 -8 65 -11 14 -3 43 -6 65 -9 22 -2 40 -4 40
-5 0 -18 457 -29 610 -15 44 4 95 8 113 8 17 1 32 4 32 7 0 3 10 6 23 7 40 1
94 10 105 17 7 4 12 1 12 -6 0 -11 2 -11 9 0 4 7 30 14 58 15 28 1 49 5 47 9
-3 4 4 7 13 7 18 1 64 8 73 11 3 1 8 2 13 1 4 0 7 4 7 10 0 5 4 8 9 5 5 -3 24
-1 42 5 43 14 53 16 59 17 3 0 21 6 40 14 19 8 38 16 43 16 8 2 14 4 25 7 4 1
21 5 37 10 17 4 40 14 53 21 12 8 22 12 22 9 0 -3 17 3 39 14 21 11 41 17 45
14 3 -4 6 -1 6 6 0 7 4 10 9 6 5 -3 12 -1 16 5 3 5 15 10 26 10 11 0 22 7 25
15 4 8 10 13 14 10 5 -3 29 6 53 19 24 14 47 22 51 19 3 -4 6 1 6 10 0 10 5
14 15 11 8 -4 15 -1 15 5 0 6 8 11 19 11 10 0 24 7 31 15 7 8 16 12 21 9 5 -3
9 0 9 5 0 6 7 11 15 11 8 0 15 5 15 10 0 6 7 10 15 10 8 0 15 3 15 8 0 4 15
13 33 21 17 8 48 27 68 43 20 15 42 28 48 28 6 0 11 3 11 8 0 4 18 18 40 32
22 13 40 28 40 32 0 4 6 8 13 8 6 0 30 16 52 35 58 50 64 55 70 55 2 0 20 15
38 34 19 18 46 41 60 51 15 9 27 24 27 31 0 8 4 14 9 14 10 0 96 81 120 113
13 16 7 25 -57 87 -40 39 -72 75 -72 81 0 5 -3 9 -7 7 -5 -2 -27 16 -49 39
-23 24 -40 43 -37 43 2 0 -10 12 -28 28 -19 15 -47 42 -64 61 -40 46 -46 52
-83 81 -18 14 -32 28 -32 32 0 8 -48 58 -56 58 -11 0 -33 28 -27 34 4 3 2 6
-3 6 -5 0 -52 41 -103 90 -52 50 -98 90 -102 90 -5 0 -46 -36 -91 -80 -45 -44
-88 -80 -96 -80 -7 0 -11 -4 -7 -9 3 -6 -5 -15 -17 -22 -13 -7 -25 -15 -28
-18 -3 -3 -22 -17 -42 -31 -20 -13 -34 -29 -31 -35 4 -5 3 -7 -2 -3 -4 4 -20
-1 -35 -12 -16 -11 -33 -20 -39 -20 -6 0 -11 -4 -11 -9 0 -5 -8 -11 -17 -14
-18 -6 -74 -37 -83 -47 -4 -5 -53 -29 -70 -35 -38 -15 -70 -31 -70 -36 0 -4
-11 -6 -25 -5 -13 2 -22 0 -20 -4 3 -5 -3 -11 -13 -15 -9 -3 -17 -5 -18 -3 0
2 -8 -3 -17 -11 -10 -7 -17 -11 -17 -8 0 3 -16 -1 -35 -9 -19 -8 -35 -12 -35
-9 0 3 -10 0 -22 -7 -23 -12 -39 -17 -70 -20 -10 -1 -18 -5 -18 -8 0 -5 -22
-10 -62 -13 -10 -1 -18 -5 -18 -10 0 -5 -7 -7 -15 -3 -8 3 -15 2 -15 -2 0 -5
-11 -9 -25 -10 -53 -4 -60 -5 -67 -16 -5 -7 -8 -7 -8 2 0 8 -5 10 -12 5 -14
-8 -34 -12 -93 -17 -22 -2 -40 -5 -40 -6 0 -1 -37 -3 -81 -4 -45 -2 -86 -6
-93 -10 -6 -4 -11 -3 -11 3 0 7 -8 7 -24 1 -15 -5 -27 -5 -35 3 -8 8 -11 8
-11 -1 0 -6 -6 -9 -12 -7 -7 3 -36 7 -64 8 -27 2 -56 7 -64 12 -9 6 -11 4 -5
-4 6 -10 3 -11 -15 -1 -12 7 -33 10 -46 7 -13 -2 -24 0 -24 5 0 5 -4 6 -10 3
-5 -3 -10 -2 -10 3 0 5 -10 8 -22 7 -13 -1 -26 3 -30 9 -5 7 -8 6 -8 -3 0 -10
-3 -11 -13 -3 -7 6 -27 13 -43 16 -17 3 -47 13 -67 21 -20 8 -40 14 -44 13 -5
0 -17 2 -28 6 -77 30 -93 34 -99 29 -3 -4 -6 -1 -6 5 0 7 -3 11 -7 11 -5 -1
-24 4 -43 12 -19 7 -38 12 -42 11 -5 -1 -8 2 -8 7 0 9 -40 27 -49 22 -2 -2 -8
4 -13 13 -5 8 -15 13 -22 10 -7 -3 -20 1 -27 9 -8 7 -29 20 -46 28 -18 7 -33
18 -33 22 0 5 -5 5 -10 2 -6 -3 -13 1 -16 9 -3 9 -10 14 -14 11 -4 -3 -13 2
-20 10 -7 8 -18 15 -25 15 -7 0 -18 7 -25 15 -7 8 -17 12 -23 8 -5 -3 -8 -2
-5 3 3 5 0 15 -8 22 -8 7 -14 9 -14 5 -1 -4 -10 3 -21 16 -11 13 -22 21 -25
19 -3 -3 -22 9 -42 28 -95 86 -128 114 -134 114 -5 0 -8 7 -8 15 0 8 -6 15
-14 15 -8 0 -16 4 -18 9 -3 10 -69 86 -127 149 -19 20 -33 39 -33 42 1 3 -6
14 -15 25 -10 11 -17 23 -15 28 1 4 -5 7 -14 7 -8 0 -13 4 -9 9 3 5 -2 17 -11
25 -8 9 -13 16 -9 16 3 0 -3 10 -15 22 -11 12 -20 28 -20 35 0 7 -4 13 -10 13
-5 0 -10 7 -10 15 0 7 -8 19 -17 24 -14 8 -15 10 -3 11 13 0 13 1 0 10 -8 5
-15 13 -15 17 -1 4 -12 28 -25 53 -13 25 -23 48 -22 53 1 4 -3 7 -8 7 -5 0 -9
3 -8 8 1 4 -3 17 -10 28 -6 12 -8 24 -5 28 3 3 1 6 -5 6 -6 0 -9 9 -7 20 2 11
0 18 -6 15 -8 -5 -14 15 -10 38 0 4 -3 7 -7 7 -5 0 -9 6 -10 13 -3 33 -8 52
-13 57 -4 3 -10 19 -13 37 -9 39 -9 39 151 33 69 -3 126 -3 128 0 2 3 38 3 80
0 42 -3 78 -4 80 -2 3 3 443 4 463 1 4 -1 12 -1 17 0 24 5 268 0 276 -5 5 -3
9 -1 9 4 0 7 80 7 138 -2 12 -2 22 1 22 7 0 5 6 5 13 -2 8 -6 16 -8 20 -5 4 5
436 7 465 3 4 -1 12 -1 17 0 24 5 268 0 276 -5 5 -3 9 -1 9 4 0 7 80 7 138 -2
12 -2 22 0 22 4 0 6 86 4 138 -4 12 -2 22 0 22 4 0 6 86 4 138 -4 12 -2 22 1
22 7 0 5 6 5 13 -2 8 -6 16 -8 20 -5 4 5 436 7 465 3 4 -1 12 0 17 1 6 1 24 1
41 0 32 -1 32 -1 29 45 -1 25 2 48 6 51 5 3 6 11 2 17 -10 16 -10 428 0 434 4
3 4 10 -1 16 -10 14 -10 82 0 92 4 4 3 17 -1 29 -9 26 -8 87 2 103 4 6 3 14
-1 17 -10 6 -10 81 0 91 4 4 3 17 -1 29 -9 26 -8 87 2 103 4 6 3 14 -1 17 -8
5 -9 80 -2 96 1 3 1 10 0 15 -1 6 -3 30 -4 55 l-2 45 -104 0 c-58 1 -111 -4
-119 -10 -11 -7 -13 -7 -8 1 4 7 -39 10 -143 9 -97 -1 -147 2 -143 8 4 6 1 7
-8 1 -22 -13 -240 -14 -232 0 5 8 3 8 -8 0 -8 -6 -36 -10 -64 -9 -27 1 -58 -3
-69 -8 -13 -6 -16 -6 -11 3 5 8 -4 10 -35 5 -33 -5 -40 -3 -34 7 4 7 -2 5 -13
-5 -11 -9 -23 -14 -26 -10 -11 10 -100 10 -121 0 -13 -6 -16 -6 -11 3 5 8 -4
10 -35 5 -33 -5 -40 -3 -34 7 4 7 -2 5 -13 -5 -11 -9 -23 -14 -26 -10 -11 10
-100 10 -121 0 -12 -6 -16 -6 -12 1 8 14 -76 11 -86 -3 -5 -7 -8 -7 -8 0 0 7
-28 10 -70 9 -51 -2 -68 1 -63 9 3 7 -3 4 -14 -6 -11 -9 -22 -14 -26 -11 -11
11 -77 11 -77 0 0 -7 -3 -7 -8 -1 -9 13 -225 13 -234 0 -5 -6 -8 -6 -8 1 0 7
-21 10 -60 8 -45 -3 -59 0 -55 9 4 7 -1 3 -9 -7 -9 -11 -16 -16 -16 -10 0 10
-79 12 -96 1 -6 -3 -14 -3 -18 0 -9 9 -217 10 -223 0 -2 -4 -10 -4 -16 0 -17
11 -57 11 -63 1 -3 -4 -11 -5 -17 -1 -18 11 -211 9 -219 -2 -5 -7 -8 -7 -8 0
0 7 -43 10 -120 9 -85 -1 -118 2 -113 10 4 6 -3 3 -14 -7 -11 -9 -23 -14 -27
-10 -9 10 -76 10 -76 0 0 -4 -6 -2 -13 5 -15 14 -18 38 -5 38 5 0 7 4 3 9 -3
5 -1 12 5 16 6 4 8 10 5 15 -3 5 -1 11 5 15 11 7 44 76 42 88 -1 4 2 7 7 7 10
0 27 39 23 53 -1 4 2 7 8 7 5 0 10 4 10 10 0 5 8 19 18 30 9 11 15 22 12 23
-3 1 7 16 23 32 15 16 27 34 27 39 0 9 77 106 95 118 5 4 7 8 3 8 -3 0 11 19
33 42 21 23 39 46 39 51 0 4 5 5 10 2 6 -3 10 -2 10 2 0 10 70 82 130 133 65
56 101 87 116 99 8 7 14 9 14 6 0 -3 12 6 28 20 15 15 40 33 56 42 15 8 50 31
77 50 27 19 49 31 49 27 0 -4 6 0 13 11 8 10 19 15 25 11 7 -4 12 -4 12 1 0 9
121 69 133 65 4 -1 7 3 7 8 0 5 3 9 8 9 4 -1 10 0 15 1 4 1 10 3 15 4 4 2 34
11 67 21 33 11 63 19 67 19 3 1 10 4 14 9 4 4 18 7 31 7 13 0 23 4 23 9 0 5 9
7 20 4 11 -3 20 -1 20 5 0 6 8 9 18 7 9 -1 22 0 27 4 6 3 15 6 20 7 6 1 25 4
43 7 19 3 36 8 40 11 3 3 12 0 20 -7 13 -9 14 -9 8 1 -5 8 -1 12 11 13 10 0
37 2 61 4 30 2 40 0 35 -8 -5 -8 -2 -8 9 0 8 7 18 10 21 6 4 -3 7 -1 7 5 0 14
22 12 32 -3 5 -6 8 -6 8 2 0 15 279 15 299 -1 12 -9 13 -8 6 3 -6 11 -5 12 6
5 8 -5 28 -9 44 -9 17 0 36 -4 43 -8 6 -5 12 -4 12 2 0 7 8 7 24 1 13 -5 27
-6 30 -3 3 4 6 2 6 -3 0 -6 10 -10 23 -11 31 -1 60 -7 75 -16 6 -5 16 -6 21
-2 5 3 13 0 16 -6 4 -5 13 -8 21 -5 7 3 16 1 19 -5 4 -5 11 -7 16 -4 5 4 9 2
9 -4 0 -6 7 -8 15 -5 8 4 15 1 15 -5 0 -6 3 -10 8 -9 16 5 102 -25 102 -36 0
-6 4 -6 9 2 7 11 9 11 14 -1 3 -9 14 -14 24 -13 10 2 20 0 23 -3 11 -15 94
-50 103 -44 6 3 7 1 3 -5 -4 -7 4 -14 21 -18 15 -4 42 -17 59 -30 17 -13 34
-20 38 -17 3 4 6 2 6 -4 0 -6 14 -16 30 -23 17 -7 30 -16 30 -21 0 -5 6 -9 13
-9 7 0 23 -9 35 -20 12 -12 22 -18 22 -14 0 4 9 -3 20 -16 19 -22 35 -33 88
-61 12 -7 22 -17 23 -23 0 -6 14 -22 30 -35 l30 -23 79 82 c44 45 80 84 80 87
0 9 50 53 61 53 5 0 8 4 7 9 -2 5 11 22 29 39 17 17 29 33 25 36 -3 3 2 6 10
6 9 0 23 10 31 23 8 13 60 69 114 125 55 56 98 102 96 102 -2 0 20 24 49 53
29 29 73 74 98 100 l44 47 -23 17 c-12 10 -38 33 -57 52 -19 18 -34 30 -34 27
0 -4 -11 3 -24 16 -32 31 -65 58 -71 58 -3 0 -19 14 -37 30 -17 17 -42 33 -55
36 -13 4 -23 12 -23 20 0 8 -3 13 -7 12 -8 -2 -63 30 -73 43 -3 3 -22 14 -42
24 -21 9 -38 22 -38 27 0 5 -4 7 -9 4 -5 -3 -14 1 -21 9 -7 8 -19 15 -26 15
-8 0 -14 5 -14 10 0 6 -9 10 -20 10 -11 0 -20 3 -20 8 0 9 -49 32 -68 32 -7 0
-10 5 -7 10 3 6 -2 10 -12 10 -10 0 -29 7 -41 16 -12 8 -22 12 -22 7 0 -4 -4
-3 -8 2 -9 13 -49 35 -62 35 -10 0 -69 24 -134 56 -16 7 -32 11 -37 8 -5 -3
-9 0 -9 5 0 6 -11 11 -25 11 -14 0 -25 5 -25 11 0 7 -10 9 -25 7 -13 -3 -22
-2 -20 2 3 4 -4 10 -15 13 -11 3 -18 1 -15 -3 3 -4 -6 -3 -19 3 -13 7 -22 16
-18 22 3 5 -2 4 -11 -4 -13 -10 -17 -10 -17 -1 0 7 -7 10 -15 7 -8 -4 -17 -2
-20 3 -3 4 -24 11 -48 15 -23 4 -46 11 -52 15 -5 4 -17 8 -25 8 -8 0 -26 3
-40 6 -49 12 -96 19 -127 20 -18 0 -33 3 -33 6 0 3 -17 7 -37 9 -53 4 -88 9
-88 11 0 3 -108 11 -162 12 -29 1 -50 5 -46 11 3 5 -3 4 -14 -2 -14 -7 -23 -7
-31 1 -9 9 -12 9 -12 -1 0 -11 -3 -11 -15 -1 -8 7 -15 8 -15 3 0 -5 -9 -9 -20
-9 -11 0 -20 4 -20 9 0 5 -7 4 -15 -3 -11 -9 -15 -9 -15 -1 0 8 -5 9 -19 2
-10 -6 -21 -8 -24 -5 -8 8 -78 11 -83 3z"/>
<path d="M12113 7794 c4 -7 -7 -12 -31 -13 -20 -2 -45 -3 -54 -4 -10 -1 -18
-5 -18 -9 0 -4 -3 -7 -7 -6 -5 1 -30 -8 -57 -20 -27 -12 -51 -22 -53 -22 -2 0
-10 -6 -18 -12 -7 -7 -25 -22 -41 -33 -42 -30 -100 -85 -90 -85 5 0 -2 -10
-15 -23 -21 -20 -64 -91 -64 -106 0 -3 -4 -12 -8 -18 -5 -7 -5 -17 -2 -23 3
-5 2 -10 -3 -10 -14 0 -22 -40 -9 -40 7 0 3 -7 -7 -15 -11 -8 -16 -15 -10 -15
5 0 9 -17 8 -37 -1 -21 1 -42 5 -48 4 -5 7 -27 6 -47 0 -21 3 -38 7 -38 4 0 5
-9 3 -20 -2 -11 1 -20 7 -20 6 0 8 -9 5 -20 -3 -11 -1 -20 5 -20 5 0 6 -4 3
-10 -3 -5 -1 -10 5 -10 6 0 8 -4 5 -10 -3 -5 -1 -10 5 -10 7 0 10 -6 7 -14 -3
-8 1 -17 10 -20 9 -4 13 -9 10 -13 -4 -3 1 -13 11 -22 10 -9 30 -31 45 -49 15
-19 27 -30 27 -25 0 4 4 4 8 -2 11 -15 70 -55 82 -55 5 0 10 -4 10 -10 0 -5 3
-9 8 -8 4 1 20 -4 35 -10 16 -7 33 -12 38 -12 5 0 9 -4 9 -10 0 -5 6 -7 14 -4
8 3 17 1 21 -5 3 -6 11 -11 16 -11 6 0 7 5 3 11 -5 8 -1 8 13 0 11 -6 23 -7
27 -4 3 3 6 2 6 -3 0 -8 23 -8 148 -1 17 1 32 6 32 11 0 5 3 6 7 3 3 -4 12 -2
20 4 10 9 13 8 13 -1 0 -10 4 -9 16 1 9 7 23 14 32 15 8 2 19 9 23 16 5 7 9 9
9 5 0 -11 77 31 110 60 14 12 35 30 47 40 l22 19 -24 26 c-13 14 -21 29 -18
32 4 3 0 6 -7 6 -8 0 -32 21 -55 46 -39 43 -43 45 -58 29 -10 -9 -17 -13 -17
-8 0 4 -7 -1 -15 -11 -8 -11 -15 -16 -15 -12 0 4 -7 0 -16 -9 -9 -9 -23 -14
-30 -11 -8 3 -14 1 -14 -4 0 -28 -170 -42 -225 -19 -16 7 -33 12 -37 11 -5 -1
-8 2 -8 8 0 6 -5 10 -10 10 -6 0 -26 16 -46 35 -19 19 -32 35 -29 35 4 0 -2
12 -13 28 -22 31 -44 92 -34 92 4 0 0 5 -8 10 -8 5 -10 10 -4 10 6 0 9 13 6
30 -2 16 -1 38 3 47 5 10 7 24 6 31 -1 6 3 12 8 12 5 0 8 9 6 20 -2 11 0 20 5
20 7 0 23 32 25 51 2 23 126 105 139 92 3 -4 6 -2 6 3 0 7 48 9 153 4 9 -1 17
-6 17 -11 0 -6 4 -8 9 -5 5 3 14 -1 21 -9 6 -7 17 -12 23 -9 7 2 34 -16 60
-42 l48 -45 24 23 c14 13 25 28 25 35 0 7 6 16 13 20 7 4 30 29 51 56 28 34
34 47 22 47 -9 0 -16 4 -16 10 0 5 -19 22 -42 37 -24 15 -46 32 -50 38 -5 7
-8 7 -8 0 0 -6 -3 -6 -8 0 -11 15 -62 36 -73 30 -5 -4 -9 -1 -9 4 0 6 -11 11
-24 11 -14 0 -27 4 -31 10 -3 5 -21 8 -40 6 -19 -1 -35 1 -35 4 0 4 -19 6 -42
6 -24 -1 -49 3 -57 9 -11 7 -13 7 -8 -1z"/>
<path d="M11237 7771 c-6 -13 0 -67 8 -80 5 -9 4 -12 -2 -8 -7 4 -10 -3 -9
-18 0 -14 5 -25 9 -25 5 0 5 -6 0 -12 -12 -20 -11 -78 1 -78 6 0 5 -4 -3 -9
-12 -8 -12 -12 -2 -25 11 -12 11 -16 1 -16 -10 0 -10 -3 -1 -14 7 -9 8 -17 2
-20 -11 -7 -9 -25 3 -45 6 -10 5 -12 -2 -7 -7 4 -12 2 -12 -3 0 -6 5 -11 11
-11 6 0 7 -5 2 -12 -12 -20 -11 -78 1 -78 6 0 5 -4 -3 -9 -12 -8 -12 -12 -2
-25 11 -12 11 -16 1 -16 -10 0 -10 -3 -1 -14 7 -9 8 -17 2 -20 -11 -7 -9 -25
3 -45 6 -10 5 -12 -2 -7 -7 4 -12 2 -12 -3 0 -6 5 -11 11 -11 6 0 7 -5 2 -12
-11 -18 -11 -90 0 -112 5 -10 5 -16 0 -13 -4 3 -8 -35 -8 -83 0 -51 4 -86 9
-83 5 4 6 0 1 -7 -4 -7 -9 -24 -10 -39 l-2 -27 126 2 c69 0 131 2 137 2 6 1
10 32 9 82 -1 51 2 77 8 73 6 -4 7 -1 1 8 -14 23 -17 62 -3 53 8 -5 9 -3 3 7
-12 21 -14 180 -1 172 6 -4 7 -1 1 8 -14 23 -17 62 -3 53 8 -5 9 -3 3 7 -12
21 -14 180 -1 172 6 -4 7 -1 1 8 -14 23 -17 62 -3 53 8 -5 9 -3 3 7 -12 21
-14 180 -1 172 6 -4 7 -1 1 8 -5 8 -10 25 -12 37 -2 17 1 22 10 16 8 -5 8 -1
-2 11 -8 10 -14 20 -12 22 12 16 -16 21 -128 20 -72 0 -132 -3 -133 -6z"/>
<path d="M12684 7758 c-3 -10 -2 -22 1 -28 3 -5 0 -10 -7 -10 -9 0 -9 -3 -2
-8 12 -8 12 -61 0 -80 -4 -7 -3 -12 2 -12 10 0 8 -63 -3 -79 -3 -5 -2 -12 3
-15 10 -6 9 -67 -2 -84 -4 -7 -4 -12 1 -12 4 0 8 -27 8 -59 1 -36 -3 -57 -9
-54 -5 4 -6 1 -1 -7 12 -19 12 -70 0 -70 -6 0 -5 -3 1 -8 12 -8 12 -61 0 -80
-4 -7 -3 -12 2 -12 10 0 8 -63 -3 -79 -3 -5 -2 -12 3 -15 10 -6 9 -67 -2 -84
-4 -7 -4 -12 1 -12 4 0 8 -25 8 -55 0 -30 -4 -55 -9 -55 -6 0 -5 -5 1 -11 6
-6 9 -18 6 -26 -4 -11 0 -14 18 -12 13 2 30 0 37 -4 6 -5 12 -4 12 1 0 5 17 6
40 2 22 -4 40 -4 40 -1 0 4 27 4 60 1 33 -3 60 -3 60 0 0 3 27 3 60 0 33 -3
60 -3 60 0 0 3 27 3 60 0 33 -3 60 -3 60 0 0 3 27 3 60 0 33 -3 60 -3 60 0 0
3 27 3 60 0 34 -3 60 -2 60 3 0 5 7 4 15 -3 12 -10 15 -10 15 1 0 12 2 12 9 1
6 -11 9 -9 13 6 3 11 1 26 -6 33 -8 9 -8 10 0 6 14 -8 14 90 0 112 -6 10 -5
12 2 7 7 -4 12 -2 12 3 0 6 -13 11 -30 12 -58 1 -130 0 -137 -2 -5 -1 -12 0
-18 1 -23 5 -156 2 -162 -3 -3 -4 -14 -2 -24 3 -12 7 -19 6 -22 -3 -3 -6 -6
-7 -6 -2 -1 10 -103 10 -128 0 -9 -3 -13 5 -13 23 0 16 -6 34 -12 41 -11 11
-10 12 1 6 11 -6 13 2 8 44 -4 35 -2 49 5 45 7 -4 8 -2 4 4 -11 18 -16 52 -8
54 4 0 108 2 232 4 124 1 228 3 231 3 4 1 6 41 7 90 l0 89 -54 4 c-30 1 -54 1
-54 -2 0 -3 -27 -3 -60 0 -33 3 -60 3 -60 0 0 -3 -27 -3 -60 0 -33 3 -60 3
-60 0 0 -7 -120 1 -121 8 -6 52 -4 110 4 105 5 -3 6 2 0 13 -5 11 -8 35 -8 54
1 33 3 35 33 35 18 0 32 3 32 7 0 4 11 3 25 -2 18 -7 25 -6 25 3 0 7 3 8 8 2
8 -12 62 -14 62 -3 0 4 11 3 25 -2 18 -7 25 -6 25 3 0 7 3 8 8 2 8 -11 62 -15
62 -4 0 4 13 4 30 -1 18 -5 32 -5 35 1 4 5 14 6 23 1 20 -9 43 -9 57 0 6 4 17
3 24 -1 7 -5 21 -7 30 -4 14 3 17 19 17 94 1 49 -2 90 -5 90 -3 1 -178 2 -389
3 -355 1 -383 0 -388 -16z"/>
<path d="M9553 6380 c-14 -4 -18 -16 -19 -47 -1 -24 3 -43 8 -43 5 0 6 -5 2
-12 -12 -18 -11 -102 1 -110 7 -5 7 -11 0 -15 -12 -10 -15 -103 -2 -103 4 0 5
-5 1 -12 -12 -18 -11 -102 1 -110 7 -5 7 -11 0 -15 -12 -10 -15 -103 -2 -103
4 0 5 -5 1 -12 -12 -18 -11 -102 1 -110 7 -5 7 -11 0 -15 -12 -10 -15 -103 -2
-103 4 0 5 -5 1 -12 -12 -18 -11 -102 1 -110 7 -6 7 -10 0 -15 -11 -8 -15 -62
-5 -64 23 -4 113 -3 118 1 4 3 7 232 7 510 l0 505 -47 0 c-26 0 -55 -2 -65 -5z"/>
<path d="M12210 6348 c0 -6 -3 -8 -6 -5 -4 3 -16 0 -27 -8 -22 -15 -35 -95
-15 -95 5 0 6 -5 3 -10 -3 -6 2 -13 12 -17 10 -4 25 -13 33 -21 10 -10 15 -11
18 -3 2 6 7 9 12 6 4 -3 23 2 41 10 19 8 30 14 25 15 -5 0 -1 9 8 19 13 14 14
21 6 26 -9 6 -9 10 1 16 11 7 11 9 1 9 -7 0 -11 4 -8 8 6 11 -30 52 -47 53 -7
0 -22 2 -34 5 -13 2 -23 -1 -23 -8z"/>
<path d="M11598 6271 c-3 -9 -4 -59 -3 -112 l1 -96 -42 2 c-33 1 -44 -3 -47
-17 -3 -9 0 -19 7 -22 7 -3 7 -5 -1 -5 -7 -1 -13 -8 -13 -17 0 -9 5 -12 13 -8
9 6 9 4 -1 -8 -16 -20 -3 -29 37 -24 17 2 34 -2 39 -8 5 -6 8 -111 8 -233 -1
-123 2 -223 5 -223 4 0 9 -14 13 -32 7 -37 67 -98 95 -98 11 0 23 -5 26 -10 5
-8 11 -7 21 1 10 8 14 8 14 0 0 -13 22 -10 32 4 5 6 8 5 8 -3 0 -10 5 -10 20
-2 10 6 23 10 27 9 19 -3 34 2 29 10 -4 5 3 7 14 4 12 -3 20 0 20 7 0 7 7 10
15 6 20 -7 19 3 -4 57 -11 25 -16 49 -13 53 4 4 -6 0 -21 -9 -15 -10 -32 -15
-37 -12 -6 3 -10 1 -10 -5 0 -6 -4 -8 -10 -5 -5 3 -10 2 -10 -3 0 -14 -63 -1
-87 18 -12 10 -19 20 -16 24 3 3 0 6 -8 6 -11 0 -11 2 1 10 9 6 10 10 3 10 -8
0 -12 14 -10 38 1 20 -2 43 -6 50 -5 6 -4 12 2 12 7 0 7 8 1 25 -5 14 -6 25
-2 25 11 0 8 174 -3 182 -6 5 -6 8 1 8 7 0 10 14 7 34 -3 35 8 50 37 51 8 0
18 -4 22 -10 5 -6 8 -5 8 2 0 9 7 10 23 4 14 -5 30 -5 40 0 12 7 17 6 17 -2 0
-9 3 -9 14 0 9 7 17 8 20 2 4 -5 15 -5 29 2 20 9 24 18 23 54 -1 24 -5 43 -11
44 -5 0 -22 2 -38 4 -19 3 -25 0 -20 -8 5 -9 3 -9 -8 -2 -8 6 -46 10 -85 9
l-71 -1 1 101 c1 59 -3 106 -10 112 -12 14 -56 13 -66 -1 -5 -6 -8 -6 -8 1 0
17 -28 13 -32 -5z"/>
<path d="M12615 6270 c-3 -9 -4 -44 -3 -78 1 -33 -1 -64 -5 -68 -3 -4 -2 -14
3 -24 7 -13 4 -22 -9 -34 -11 -10 -22 -13 -25 -8 -3 5 -15 8 -28 7 -20 -1 -23
-7 -24 -46 -1 -53 11 -73 36 -59 11 6 21 5 30 -3 10 -10 11 -9 5 3 -6 12 -5
12 5 3 16 -15 19 -52 7 -77 -5 -10 -5 -16 0 -13 10 6 8 -97 -3 -114 -4 -7 -3
-10 2 -7 5 4 10 -48 10 -120 1 -70 3 -134 6 -142 13 -44 20 -60 29 -60 5 0 9
-9 9 -21 0 -11 4 -18 8 -15 5 3 18 -3 28 -13 11 -10 27 -17 37 -15 9 1 19 -1
21 -5 5 -8 59 -6 111 4 17 3 36 6 43 7 6 1 12 5 12 10 0 4 6 8 14 8 22 0 24
21 8 75 -8 28 -17 44 -19 37 -3 -6 -9 -10 -14 -6 -5 3 -9 0 -9 -6 0 -6 -4 -9
-9 -5 -5 3 -12 1 -15 -4 -4 -5 -14 -8 -24 -7 -9 2 -20 -2 -24 -7 -4 -7 -12 -6
-22 2 -13 11 -16 11 -16 0 -1 -9 -5 -8 -15 5 -8 11 -15 16 -15 10 0 -5 -7 3
-15 19 -21 41 -17 464 5 458 18 -4 25 -4 68 2 19 3 32 0 32 -7 0 -7 3 -7 8 -1
4 6 14 10 22 10 8 0 18 -4 22 -10 5 -6 8 -5 8 3 0 10 5 10 20 2 16 -9 20 -8
20 5 0 8 6 15 13 15 9 0 9 2 0 8 -7 4 -11 17 -9 28 6 30 -7 45 -44 50 -25 4
-30 3 -25 -8 6 -10 5 -11 -6 0 -16 15 -33 16 -23 0 5 -7 3 -8 -7 -2 -19 12
-41 11 -58 -1 -11 -7 -13 -7 -7 3 9 15 -8 16 -35 2 -11 -6 -19 -7 -18 -3 1 4
1 56 0 114 -1 89 -4 108 -17 113 -9 4 -22 2 -29 -4 -6 -5 -15 -7 -19 -3 -13
14 -46 9 -51 -7z"/>
<path d="M14089 6279 c-3 -19 -5 -24 -11 -35 -4 -6 -4 -14 -1 -18 12 -12 12
-36 0 -36 -8 0 -7 -3 1 -9 15 -9 15 -20 1 -37 -5 -6 -6 -14 -2 -18 4 -4 8 -18
9 -31 1 -23 -7 -30 -30 -26 -4 1 -14 -3 -21 -9 -9 -8 -15 -8 -20 0 -14 23 -22
7 -21 -42 1 -37 5 -52 14 -50 6 1 12 -3 12 -9 0 -6 5 -7 13 -2 18 11 37 12 37
2 0 -6 4 -8 8 -5 10 6 10 -34 -1 -50 -3 -6 -3 -14 1 -18 10 -11 9 -30 -3 -38
-7 -5 -7 -8 1 -8 12 0 13 -58 1 -77 -4 -6 -3 -14 2 -17 10 -7 9 -25 -2 -42 -3
-6 -3 -14 0 -18 12 -12 12 -36 0 -36 -8 0 -8 -3 -2 -8 12 -8 13 -22 3 -38 -4
-6 -5 -14 -1 -18 3 -3 8 -29 10 -57 2 -28 9 -61 15 -73 7 -11 11 -25 10 -29
-1 -5 2 -6 7 -3 5 4 12 -3 16 -13 3 -11 15 -23 26 -26 10 -4 19 -12 19 -18 0
-7 4 -6 10 3 7 11 10 11 10 2 0 -7 5 -10 10 -7 6 3 10 2 10 -4 0 -7 8 -7 25
-1 16 6 26 6 31 -1 4 -6 11 -6 20 2 11 9 14 9 14 -1 0 -10 3 -10 15 0 9 7 18
10 22 7 3 -4 15 -1 27 5 11 7 24 11 29 10 4 -1 7 3 7 8 0 6 6 10 13 10 11 0
10 10 -2 49 -13 40 -20 48 -38 47 -13 0 -23 -6 -23 -12 0 -6 -14 -10 -30 -9
-17 1 -33 -2 -35 -6 -7 -11 -47 2 -69 23 -11 10 -17 21 -13 24 4 4 -1 13 -11
20 -9 7 -12 14 -5 14 8 0 12 35 3 35 -1 0 -3 8 -5 18 -2 9 1 17 6 17 6 0 6 7
0 18 -7 13 -7 22 1 30 6 6 7 16 2 23 -10 17 -10 51 0 67 4 6 3 12 -1 12 -10 0
-10 41 1 58 4 7 4 18 0 24 -11 17 -10 50 1 67 5 9 4 12 -3 8 -6 -5 -8 0 -5 13
6 23 23 37 23 19 0 -8 5 -7 17 2 14 12 15 12 9 1 -7 -11 -4 -12 12 -3 15 8 22
8 25 -2 4 -9 6 -9 6 1 1 9 6 10 19 3 11 -6 24 -6 32 -1 9 6 17 5 22 -3 5 -7 8
-8 8 -1 0 6 13 9 31 6 21 -3 30 -1 25 6 -3 6 0 13 6 15 10 4 10 6 1 6 -9 1
-10 8 -3 26 6 15 6 26 -1 30 -5 4 -7 11 -4 16 4 5 2 9 -4 9 -5 0 -13 -5 -16
-10 -4 -6 -12 -7 -18 -3 -21 13 -58 13 -50 0 5 -9 3 -9 -8 0 -17 14 -28 14
-51 2 -11 -6 -19 -5 -24 2 -4 8 -9 7 -15 -2 -7 -11 -9 -11 -9 -1 0 7 -4 11 -9
7 -6 -3 -15 3 -21 14 -7 14 -7 22 0 26 8 5 8 11 1 19 -7 9 -7 16 1 24 8 8 8
15 1 24 -6 7 -9 22 -7 33 5 22 5 41 2 66 -2 17 -48 22 -48 5 0 -7 -3 -8 -8 -1
-9 13 -52 15 -53 4z"/>
<path d="M10303 6072 c-18 -2 -33 -7 -33 -11 0 -3 -8 -8 -17 -9 -43 -4 -57 -9
-61 -20 -2 -7 -8 -12 -13 -12 -15 0 -59 -47 -51 -55 4 -4 0 -5 -8 -3 -9 2 -14
-3 -12 -12 2 -8 0 -11 -5 -7 -4 5 -8 34 -8 65 l0 57 -53 1 c-58 0 -76 -14 -62
-51 5 -12 5 -28 0 -35 -5 -7 -4 -24 1 -37 5 -12 5 -23 1 -23 -9 0 -8 -58 1
-67 4 -3 1 -13 -6 -21 -8 -10 -8 -16 -1 -19 6 -2 8 -21 4 -52 -3 -27 -3 -58 1
-68 4 -11 3 -26 -1 -33 -5 -7 -4 -24 1 -37 5 -12 5 -23 1 -23 -9 0 -8 -58 1
-67 4 -3 2 -13 -5 -20 -9 -11 -9 -16 1 -23 10 -5 11 -13 3 -26 -7 -12 -7 -25
-1 -36 5 -10 6 -18 1 -18 -12 0 -10 -40 3 -41 106 -8 113 -7 109 18 -2 12 0
23 6 23 6 0 8 5 3 12 -8 14 -11 328 -3 328 3 0 6 15 7 33 4 50 6 57 15 57 5 0
7 4 3 9 -3 6 3 14 12 20 10 6 15 11 10 11 -18 0 54 62 84 71 58 17 69 18 69 6
0 -9 2 -9 8 0 8 13 29 12 51 -1 10 -7 12 -5 6 5 -5 8 1 5 13 -5 12 -11 25 -16
29 -13 17 17 81 -112 67 -135 -3 -4 0 -8 6 -8 7 0 8 -6 1 -18 -6 -11 -6 -24 0
-35 7 -11 6 -17 -1 -17 -7 0 -8 -6 -1 -18 7 -13 6 -23 -1 -30 -8 -8 -8 -12 -1
-12 13 0 12 -42 -2 -52 -7 -5 -6 -8 1 -8 11 0 12 -60 0 -78 -3 -6 -2 -14 4
-17 7 -5 8 -11 1 -19 -6 -7 -6 -17 -1 -26 5 -9 5 -19 -2 -27 -7 -9 -7 -13 0
-13 11 0 11 -18 0 -35 -14 -23 30 -34 108 -26 15 1 26 41 12 41 -6 0 -5 6 2
15 10 12 10 15 0 15 -10 0 -10 3 0 15 10 12 10 15 0 15 -10 0 -10 3 -1 14 9
11 9 16 0 21 -8 6 -7 10 2 16 12 7 12 9 0 9 -11 0 -11 3 -1 15 10 12 10 15 0
15 -10 0 -10 3 0 15 10 12 10 15 0 15 -10 0 -10 3 0 15 10 12 10 15 0 15 -10
0 -10 3 0 15 9 11 9 15 1 15 -9 0 -9 5 -1 20 6 11 7 20 3 20 -4 0 -8 11 -8 25
0 14 2 25 5 25 3 0 5 11 5 25 0 14 -3 25 -7 25 -11 0 -5 23 7 32 7 5 6 8 0 8
-6 0 -12 17 -13 37 -2 21 -8 40 -14 44 -6 4 -8 12 -4 18 4 5 -2 19 -13 30 -11
11 -17 21 -15 24 9 9 -67 67 -91 69 -14 1 -25 6 -25 11 0 5 -17 7 -38 6 -21
-2 -42 -1 -47 2 -6 2 -25 3 -42 1z"/>
<path d="M11069 6076 c-2 -2 -20 -6 -39 -9 -19 -3 -48 -11 -65 -18 -16 -7 -33
-12 -37 -11 -5 1 -8 -5 -8 -13 0 -8 -5 -14 -11 -12 -13 2 -60 -83 -53 -95 3
-4 1 -8 -4 -8 -6 0 -7 -14 -2 -37 5 -20 8 -39 7 -42 -5 -19 39 -81 64 -91 16
-7 29 -17 29 -22 0 -5 5 -6 10 -3 6 3 10 1 10 -4 0 -6 7 -11 15 -11 8 0 15 -4
15 -10 0 -5 7 -7 15 -4 8 4 15 1 15 -5 0 -6 3 -10 8 -10 20 3 43 -2 38 -9 -2
-4 7 -9 22 -10 59 -5 135 -63 118 -91 -3 -5 -1 -11 6 -13 13 -5 -33 -55 -67
-74 -11 -6 -47 -10 -80 -8 -77 4 -87 6 -118 27 -15 9 -31 17 -37 17 -5 0 -10
4 -10 9 0 15 -32 22 -47 10 -7 -7 -11 -14 -9 -16 3 -3 -6 -15 -19 -27 l-24
-22 21 -15 c11 -8 27 -20 34 -27 8 -7 14 -11 14 -7 0 4 7 -1 16 -9 8 -9 20
-14 25 -11 5 4 9 1 9 -5 0 -6 5 -8 10 -5 6 3 10 2 10 -2 0 -5 8 -9 18 -10 30
-3 71 -11 82 -18 5 -3 10 0 10 7 0 9 3 9 10 -2 9 -13 11 -13 20 0 7 11 10 11
10 2 0 -10 5 -10 21 -1 16 8 20 8 14 -1 -6 -9 -3 -9 13 -1 11 6 30 11 41 11
11 0 27 7 35 16 9 8 16 12 16 7 0 -4 7 1 15 11 8 11 15 16 15 11 0 -18 51 52
57 78 3 15 9 27 14 27 5 0 5 11 0 23 -5 13 -6 29 -1 37 8 13 -27 90 -42 90 -5
0 -6 5 -3 10 3 6 0 10 -8 10 -8 0 -22 9 -32 20 -10 11 -26 20 -35 20 -9 0 -21
5 -27 11 -7 7 -20 12 -30 14 -10 1 -31 7 -48 14 -16 7 -36 14 -43 15 -7 1 -22
10 -32 19 -11 9 -20 14 -20 10 0 -3 -11 4 -24 16 -24 23 -41 71 -24 71 5 0 7
4 3 10 -3 5 3 18 15 30 11 11 20 17 20 14 0 -4 6 -2 13 3 20 15 77 16 77 1 0
-10 2 -10 9 1 8 12 12 12 25 2 9 -8 16 -10 16 -6 0 4 7 2 15 -5 9 -7 18 -10
22 -6 4 3 16 -3 28 -14 22 -20 66 -35 64 -22 -3 18 2 32 17 46 21 22 10 52
-26 68 -17 7 -30 15 -30 18 0 5 -19 9 -57 12 -7 1 -13 5 -13 9 0 4 -16 9 -35
11 -19 2 -35 0 -35 -5 0 -5 -6 -4 -13 2 -8 6 -16 9 -18 7z"/>
<path d="M12181 6067 c-1 -7 -3 -166 -4 -354 -1 -226 1 -343 8 -344 5 -1 31
-2 58 -3 47 -1 47 -1 47 31 0 20 5 33 13 33 8 0 8 3 1 8 -6 4 -10 25 -10 47 1
22 -3 43 -9 47 -6 5 -5 8 3 8 6 0 12 7 12 16 0 9 -5 12 -12 8 -7 -5 -8 -3 -2
7 12 20 11 272 -1 281 -6 5 -5 8 3 8 6 0 12 7 12 16 0 9 -5 12 -12 8 -10 -6
-10 -4 -3 7 9 12 11 67 6 157 0 12 -6 22 -12 22 -5 0 -7 -5 -3 -12 5 -7 3 -8
-7 -3 -7 5 -25 9 -39 9 -14 1 -30 4 -36 8 -6 4 -12 2 -13 -5z"/>
<path d="M14909 6076 c-4 -4 -66 -15 -96 -18 -7 -1 -13 -5 -13 -9 0 -4 -9 -6
-19 -4 -11 2 -22 -3 -25 -11 -3 -8 -11 -14 -17 -14 -15 0 -109 -97 -110 -113
-1 -7 -1 -15 0 -19 0 -5 -4 -8 -10 -8 -5 0 -7 -5 -4 -10 3 -6 0 -13 -8 -16 -9
-3 -13 -16 -12 -35 1 -16 -1 -29 -5 -29 -10 0 -6 -132 4 -149 7 -11 6 -12 -5
-6 -11 7 -12 6 -2 -6 6 -8 12 -17 12 -21 5 -30 39 -106 51 -113 6 -4 8 -11 5
-16 -4 -5 -2 -9 2 -9 10 0 45 -25 79 -58 13 -12 25 -22 26 -21 2 1 21 -4 43
-11 22 -7 51 -14 65 -16 14 -1 25 -3 25 -4 0 -1 15 -3 33 -5 18 -2 30 0 28 4
-2 3 13 6 35 5 22 0 51 5 65 12 13 7 27 13 29 14 3 0 7 1 10 1 3 1 9 2 14 3 5
0 23 13 40 29 17 15 35 27 41 27 5 0 10 7 10 16 0 8 4 13 9 10 23 -15 2 26
-25 46 -16 12 -31 26 -34 30 -3 4 -17 -3 -31 -16 -14 -13 -35 -27 -46 -30 -12
-4 -23 -13 -26 -20 -3 -7 -18 -12 -36 -11 -17 1 -31 -1 -31 -5 0 -7 -76 -4
-115 4 -11 2 -19 8 -18 14 1 6 -5 9 -15 8 -9 -2 -25 6 -34 17 -10 11 -18 17
-18 14 0 -4 -8 1 -18 11 -11 9 -17 20 -15 23 1 4 -4 10 -13 13 -8 3 -12 11 -9
16 4 6 2 16 -3 23 -21 25 -18 59 5 68 14 5 25 4 29 -2 4 -6 11 -6 20 2 11 9
14 9 14 0 0 -9 5 -9 20 -1 15 8 20 8 20 -1 0 -8 4 -8 15 1 12 10 15 10 15 0 0
-10 3 -10 15 0 11 9 15 9 15 1 0 -9 5 -9 20 -1 11 6 20 7 20 3 0 -4 11 -8 25
-8 14 0 25 3 25 6 0 9 44 5 52 -5 4 -6 13 -4 22 3 12 11 16 11 16 1 0 -10 3
-10 15 0 12 10 15 10 15 0 0 -10 3 -10 14 -1 10 9 16 9 21 1 5 -8 11 -8 21 1
9 7 14 8 14 1 0 -7 10 -8 29 -2 21 6 31 5 34 -3 2 -7 4 22 4 63 0 41 -4 80 -9
87 -5 7 -7 16 -5 21 8 11 -30 92 -43 92 -5 0 -9 4 -7 8 3 11 -70 82 -77 75 -3
-4 -6 -1 -6 6 0 7 -4 9 -10 6 -5 -3 -10 -1 -10 5 0 6 -4 8 -10 5 -5 -3 -10 -2
-10 4 0 5 -9 8 -20 6 -11 -2 -20 1 -20 6 0 6 -17 9 -38 8 -21 -2 -42 0 -48 4
-6 3 -13 5 -15 3z m13 -122 c7 -4 8 -3 4 4 -5 8 0 11 16 8 13 -3 24 -5 26 -7
1 -1 7 -3 12 -4 6 -1 13 -4 18 -5 4 -1 11 -2 15 -1 21 4 104 -98 99 -121 -1
-5 2 -8 6 -8 5 0 8 -10 7 -22 -1 -17 -8 -23 -26 -23 -13 -1 -27 4 -31 10 -5 6
-8 6 -8 -2 0 -7 -7 -13 -16 -13 -9 0 -12 5 -8 12 5 7 3 8 -7 2 -20 -12 -79
-12 -79 0 0 7 -3 8 -8 1 -10 -13 -212 -13 -204 0 3 5 -2 4 -12 -4 -16 -14 -17
-12 -14 16 3 29 57 127 66 119 2 -3 12 4 23 15 11 11 24 17 29 14 5 -3 11 -1
15 5 4 6 11 8 16 5 5 -4 9 -2 9 4 0 10 32 7 52 -5z"/>
<path d="M13174 6057 c-3 -8 -3 -26 0 -40 3 -17 0 -27 -7 -27 -8 0 -8 -3 -2
-8 11 -8 12 -43 1 -60 -3 -6 0 -13 6 -15 10 -4 9 -8 -2 -16 -12 -8 -12 -11 -1
-11 11 0 11 -3 1 -15 -7 -8 -9 -15 -4 -15 10 0 10 -173 -1 -189 -3 -6 -2 -11
3 -11 5 0 8 -13 6 -30 -2 -16 1 -30 7 -30 6 0 7 -6 2 -12 -12 -20 -12 -39 0
-31 6 4 8 0 4 -10 -3 -10 -2 -17 3 -17 6 0 9 -3 8 -7 -3 -16 22 -64 37 -69 8
-4 15 -12 15 -19 0 -7 14 -18 30 -25 17 -7 30 -17 30 -22 0 -5 5 -6 10 -3 6 4
17 1 25 -5 8 -6 19 -9 25 -5 5 3 10 2 10 -3 0 -12 43 -10 52 3 5 6 8 5 8 -2 0
-9 7 -10 27 -2 14 5 32 8 40 5 7 -3 13 -1 13 5 0 6 5 7 10 4 6 -3 10 -1 10 5
0 6 4 9 9 6 5 -3 33 17 62 44 30 28 54 50 55 50 0 0 -1 -25 -3 -55 -3 -47 -1
-55 14 -56 10 0 34 -2 54 -4 26 -2 39 3 48 16 7 13 8 19 1 19 -7 0 -7 7 1 21
6 12 7 24 3 28 -11 7 -11 42 -1 59 5 7 3 12 -4 12 -8 0 -8 4 1 15 10 12 10 15
-1 15 -12 0 -12 2 0 9 9 6 10 11 2 15 -7 5 -8 13 -2 25 6 10 6 23 1 31 -5 9
-5 19 2 27 8 10 7 13 -3 13 -12 0 -12 2 0 9 9 6 10 11 2 15 -6 4 -8 13 -4 19
10 17 13 37 4 37 -9 0 -7 62 3 78 4 7 2 12 -5 12 -8 0 -8 4 1 15 10 12 10 15
-1 15 -12 0 -12 2 0 9 9 6 10 11 2 15 -7 5 -8 13 -2 25 6 10 6 23 1 31 -5 8
-4 22 2 34 8 15 8 21 0 24 -8 2 -9 10 -3 20 13 25 -8 37 -59 34 -69 -4 -71 -4
-60 -17 6 -7 5 -16 -2 -23 -7 -7 -8 -12 -2 -12 5 0 10 -9 11 -20 1 -11 -3 -20
-8 -20 -6 0 -6 -7 -2 -17 10 -22 10 -54 0 -71 -5 -6 -4 -12 1 -12 12 0 12 -32
-1 -47 -6 -8 -6 -13 0 -13 13 0 12 -33 -1 -42 -7 -6 -8 -10 -1 -15 8 -6 13
-68 5 -68 -1 0 -3 -13 -4 -29 -1 -16 -7 -31 -12 -33 -6 -2 -9 -15 -6 -28 2
-15 0 -25 -7 -25 -6 0 -11 -7 -11 -15 0 -8 -3 -15 -7 -15 -5 0 -22 -13 -40
-30 -52 -49 -160 -61 -201 -22 -7 6 -20 12 -28 12 -8 0 -13 4 -9 9 3 5 -2 16
-10 25 -17 16 -23 37 -31 96 -3 19 -7 36 -9 39 -3 2 0 10 6 18 6 7 8 13 3 13
-5 0 -8 79 -6 177 2 136 0 178 -10 184 -19 12 -30 11 -22 -3 5 -7 3 -8 -7 -2
-19 12 -41 11 -58 -1 -11 -7 -13 -7 -7 3 4 6 5 12 1 12 -3 0 -8 -6 -11 -13z"/>
<path d="M8586 5017 c-47 -46 -86 -82 -86 -81 0 2 -18 -13 -40 -33 -38 -37
-84 -76 -136 -118 -14 -11 -36 -30 -49 -41 -13 -12 -26 -19 -29 -16 -3 3 -6
-1 -6 -8 0 -7 -2 -11 -5 -8 -3 3 -22 -10 -42 -28 -20 -18 -40 -31 -44 -29 -4
3 -9 2 -11 -2 -4 -11 -118 -95 -118 -88 0 4 -7 0 -15 -7 -33 -30 -45 -38 -45
-32 0 4 -9 -1 -20 -11 -11 -10 -20 -14 -20 -9 0 5 -7 -2 -16 -14 -8 -12 -20
-20 -25 -17 -5 4 -9 1 -9 -5 0 -6 -4 -8 -10 -5 -5 3 -10 1 -10 -5 0 -6 -4 -8
-10 -5 -5 3 -10 3 -10 -2 0 -4 -21 -19 -47 -33 -27 -13 -66 -35 -88 -49 -22
-13 -40 -23 -40 -21 0 2 -10 0 -22 -4 -13 -4 -23 -12 -23 -17 0 -5 -3 -8 -7
-7 -5 1 -39 -13 -76 -30 -38 -18 -73 -29 -79 -26 -6 4 -8 3 -5 -3 6 -9 -82
-46 -109 -46 -7 0 -11 -4 -9 -8 5 -7 -43 -24 -57 -21 -5 1 -8 -3 -8 -10 0 -6
-3 -9 -6 -6 -3 3 -48 -9 -101 -28 -53 -18 -100 -31 -105 -28 -4 3 -8 0 -8 -6
0 -7 -6 -10 -14 -7 -7 3 -18 1 -22 -3 -5 -5 -21 -11 -34 -14 -14 -2 -25 -5
-25 -6 0 -1 -17 -6 -47 -13 -7 -1 -18 -6 -24 -9 -5 -4 -19 -5 -30 -4 -10 2
-30 -4 -44 -13 -13 -9 -21 -11 -17 -4 5 7 -7 7 -40 -3 -25 -8 -57 -14 -70 -14
-13 0 -22 -3 -20 -7 3 -5 -9 -9 -26 -10 -73 -3 -107 -8 -107 -16 0 -5 -4 -6
-9 -3 -5 4 -21 2 -35 -4 -19 -7 -26 -6 -26 3 0 9 -3 8 -9 -1 -12 -19 -15 -19
-36 -2 -11 9 -16 10 -11 3 7 -13 4 -14 -66 -16 -21 -1 -38 -4 -38 -7 0 -3 -9
-6 -20 -6 -11 0 -20 4 -20 9 0 5 -8 3 -17 -4 -14 -12 -16 -12 -8 0 6 11 5 12
-6 5 -21 -13 -82 -14 -98 0 -12 9 -13 8 -7 -3 7 -10 -1 -12 -38 -10 -25 2 -46
2 -46 -1 0 -7 -146 -4 -165 4 -8 3 -15 1 -15 -4 0 -5 -6 -7 -14 -4 -7 3 -47 6
-89 7 -42 2 -79 6 -83 9 -4 4 -15 3 -25 -2 -12 -7 -20 -6 -25 1 -4 8 -9 7 -15
-2 -5 -8 -9 -9 -9 -3 0 6 -15 10 -35 9 -19 -1 -35 3 -35 8 0 5 -7 4 -15 -3 -9
-8 -15 -8 -15 -2 0 6 -18 10 -44 9 -24 -1 -42 2 -38 7 3 5 -5 7 -16 4 -12 -4
-22 -2 -22 2 0 5 -13 6 -29 4 -16 -3 -32 0 -36 6 -11 18 -23 1 -19 -30 2 -19
-1 -30 -9 -30 -8 0 -8 -3 -1 -8 14 -9 14 -185 0 -194 -8 -6 -8 -8 0 -8 14 0
14 -110 0 -110 -8 0 -8 -2 0 -8 14 -9 14 -185 0 -194 -8 -6 -8 -8 0 -8 6 0 11
-22 11 -55 0 -33 -5 -55 -11 -55 -8 0 -8 -2 0 -8 14 -9 14 -185 0 -194 -8 -6
-8 -8 0 -8 6 0 11 -22 11 -55 0 -33 -5 -55 -11 -55 -8 0 -7 -3 0 -8 7 -4 12
-18 12 -32 0 -51 2 -58 20 -55 9 1 25 -2 36 -7 13 -7 16 -7 12 1 -4 6 -2 11 3
11 6 0 11 -4 11 -8 0 -5 15 -9 33 -9 69 -1 197 -12 207 -18 5 -3 10 -2 10 3 0
4 22 6 50 2 29 -4 54 -2 60 4 6 6 10 6 10 1 0 -6 47 -10 110 -10 60 0 110 4
110 8 0 5 5 5 11 1 17 -10 89 -10 89 0 0 5 6 4 13 -2 7 -6 18 -7 25 -3 7 4 35
6 63 4 38 -2 48 0 43 10 -6 9 -5 9 8 0 8 -7 17 -11 20 -8 3 3 37 7 75 9 39 2
75 6 80 8 9 5 73 11 115 11 15 -1 26 2 23 6 -2 4 16 7 41 6 24 0 44 4 44 9 0
5 3 6 6 3 4 -3 16 -2 27 4 15 9 18 8 12 -2 -5 -8 -4 -10 3 -5 14 9 46 16 87
21 27 3 62 10 75 15 15 6 37 4 49 -5 11 -7 13 -7 7 3 -4 7 -2 12 6 13 13 1 23
3 43 9 12 3 14 3 77 14 29 5 45 12 41 19 -3 6 -1 7 5 3 10 -6 74 6 112 21 8 3
21 5 28 4 6 -1 12 2 12 8 0 5 8 8 18 6 9 -1 22 0 27 4 11 6 13 6 58 16 16 3
41 13 55 23 14 9 23 12 19 5 -6 -9 -1 -10 23 -2 16 6 30 16 30 22 0 7 5 5 10
-3 7 -12 10 -12 10 -1 0 8 6 11 16 7 8 -3 12 -2 9 4 -3 6 5 10 19 10 14 0 28
5 31 11 4 6 13 8 21 5 8 -3 14 0 14 6 0 6 3 8 6 5 4 -3 15 -2 26 4 11 6 29 12
40 14 12 3 24 8 27 12 3 5 13 9 21 11 8 2 27 10 43 17 19 9 25 10 20 2 -4 -7
1 -5 11 3 10 8 25 15 34 16 8 2 19 9 23 16 5 7 9 9 9 4 0 -5 7 -3 15 4 8 7 15
10 15 6 0 -4 11 1 25 10 14 9 25 13 25 9 0 -5 9 0 21 11 12 10 23 18 25 17 9
-4 44 10 44 18 0 5 3 8 8 7 4 -1 17 3 28 10 12 6 24 8 28 5 3 -3 6 -1 6 6 0 7
4 10 8 7 5 -3 19 4 30 15 12 11 22 17 22 14 0 -3 10 0 23 7 12 7 26 12 30 13
4 0 11 6 16 13 5 8 11 14 14 14 21 0 46 12 41 19 -3 5 2 6 10 3 9 -3 16 -1 16
5 0 6 9 11 19 11 10 0 21 7 25 15 3 8 9 14 13 13 13 -3 63 24 63 34 0 5 5 6
10 3 6 -3 10 -2 10 4 0 5 14 12 30 16 17 4 28 11 24 16 -5 8 9 13 29 10 4 0 7
3 7 8 0 9 115 81 130 81 5 0 13 6 17 13 4 6 44 36 88 66 44 30 82 58 83 63 2
4 10 8 17 8 7 0 15 3 17 8 2 4 32 29 68 57 36 27 68 54 72 60 4 5 8 6 8 1 0
-5 8 0 18 11 9 11 29 28 44 37 15 10 26 22 23 26 -3 5 4 11 15 15 11 4 40 26
65 51 25 24 45 41 45 38 0 -3 27 20 59 53 33 32 82 79 109 104 l49 47 -62 65
c-34 37 -65 63 -69 60 -3 -3 -6 -1 -6 5 0 6 -117 129 -260 273 -143 144 -260
266 -260 272 0 6 -3 8 -6 5 -3 -4 -25 14 -48 38 l-43 44 -87 -83z"/>
</g>
</svg>
